<svg xmlns="http://www.w3.org/2000/svg" width="16" height="16" viewBox="0 0 16 16" fill="none">
  <mask id="path-1-inside-1_164_8176" fill="white">
    <path d="M14.7334 6.06667C14.6667 3.8 12.8667 2 10.6 2C9.86671 2 8.73337 2.53333 8.26671 3.4C8.20004 3.6 7.93337 3.6 7.86671 3.4C7.33337 2.6 6.26671 2.06667 5.46671 2.06667C3.26671 2.06667 1.40004 3.86667 1.33337 6.06667V6.2C1.33337 7.33333 1.80004 8.4 2.60004 9.2C2.60004 9.2 2.60004 9.2 2.60004 9.26667C2.66671 9.33333 5.86671 12.1333 7.33337 13.4C7.73337 13.7333 8.33337 13.7333 8.73337 13.4C10.2 12.1333 13.3334 9.33333 13.4667 9.26667C13.4667 9.26667 13.4667 9.26667 13.4667 9.2C14.2667 8.46667 14.7334 7.4 14.7334 6.2V6.06667Z"/>
  </mask>
  <path d="M14.7334 6.06667H15.9334V6.04902L15.9329 6.03139L14.7334 6.06667ZM8.26671 3.4L7.21014 2.83108L7.16104 2.92227L7.12829 3.02053L8.26671 3.4ZM7.86671 3.4L9.00513 3.02053L8.95431 2.86807L8.86517 2.73436L7.86671 3.4ZM1.33337 6.06667L0.133925 6.03032L0.133374 6.04849V6.06667H1.33337ZM2.60004 9.2H3.80004V8.70294L3.44857 8.35147L2.60004 9.2ZM2.60004 9.26667H1.40004V9.76372L1.75151 10.1152L2.60004 9.26667ZM7.33337 13.4L6.54903 14.3082L6.55703 14.3151L6.56515 14.3219L7.33337 13.4ZM8.73337 13.4L9.5016 14.3219L9.50972 14.3151L9.51772 14.3082L8.73337 13.4ZM13.4667 9.26667L14.0034 10.34L14.6667 10.0083V9.26667H13.4667ZM13.4667 9.2L12.6558 8.31541L12.2667 8.67212V9.2H13.4667ZM15.9329 6.03139C15.8477 3.13627 13.5358 0.8 10.6 0.8V3.2C12.1976 3.2 13.4857 4.46373 13.5339 6.10195L15.9329 6.03139ZM10.6 0.8C9.98073 0.8 9.31364 1.012 8.74889 1.32696C8.17735 1.64571 7.58114 2.14209 7.21014 2.83108L9.32327 3.96892C9.41895 3.79124 9.62273 3.58763 9.91786 3.42304C10.2198 3.25466 10.486 3.2 10.6 3.2V0.8ZM7.12829 3.02053C7.4263 2.12649 8.70711 2.12649 9.00513 3.02053L6.72829 3.77947C7.15963 5.07351 8.97378 5.07351 9.40513 3.77947L7.12829 3.02053ZM8.86517 2.73436C8.46837 2.13916 7.90503 1.68337 7.33563 1.37677C6.77173 1.07313 6.11015 0.866667 5.46671 0.866667V3.26667C5.62327 3.26667 5.89502 3.32687 6.19779 3.4899C6.49505 3.64996 6.73171 3.86084 6.86825 4.06564L8.86517 2.73436ZM5.46671 0.866667C2.62214 0.866667 0.220358 3.17802 0.133925 6.03032L2.53282 6.10301C2.57972 4.55531 3.91128 3.26667 5.46671 3.26667V0.866667ZM0.133374 6.2C0.133374 7.66906 0.739129 9.03614 1.75151 10.0485L3.44857 8.35147C2.86095 7.76385 2.53337 6.99761 2.53337 6.2H0.133374ZM2.60004 9.2H1.40004C1.40004 9.2 1.40004 9.2 1.40004 9.2C1.40004 9.2 1.40004 9.2 1.40004 9.2C1.40004 9.2 1.40004 9.2 1.40004 9.2C1.40004 9.2 1.40004 9.2 1.40004 9.2V9.2V9.2V9.2V9.2C1.40004 9.2 1.40004 9.2 1.40004 9.2C1.40004 9.2 1.40004 9.2 1.40004 9.20001V9.20001C1.40004 9.20001 1.40004 9.20001 1.40004 9.20001C1.40004 9.20001 1.40004 9.20001 1.40004 9.20001C1.40004 9.20001 1.40004 9.20001 1.40004 9.20001C1.40004 9.20001 1.40004 9.20001 1.40004 9.20001C1.40004 9.20001 1.40004 9.20001 1.40004 9.20001C1.40004 9.20001 1.40004 9.20001 1.40004 9.20001C1.40004 9.20001 1.40004 9.20001 1.40004 9.20001C1.40004 9.20001 1.40004 9.20001 1.40004 9.20001C1.40004 9.20002 1.40004 9.20002 1.40004 9.20002C1.40004 9.20002 1.40004 9.20002 1.40004 9.20002C1.40004 9.20002 1.40004 9.20002 1.40004 9.20002C1.40004 9.20002 1.40004 9.20002 1.40004 9.20002C1.40004 9.20002 1.40004 9.20002 1.40004 9.20002C1.40004 9.20002 1.40004 9.20002 1.40004 9.20003C1.40004 9.20003 1.40004 9.20003 1.40004 9.20003C1.40004 9.20003 1.40004 9.20003 1.40004 9.20003C1.40004 9.20003 1.40004 9.20003 1.40004 9.20003C1.40004 9.20003 1.40004 9.20003 1.40004 9.20003C1.40004 9.20003 1.40004 9.20004 1.40004 9.20004C1.40004 9.20004 1.40004 9.20004 1.40004 9.20004C1.40004 9.20004 1.40004 9.20004 1.40004 9.20004C1.40004 9.20004 1.40004 9.20004 1.40004 9.20005C1.40004 9.20005 1.40004 9.20005 1.40004 9.20005C1.40004 9.20005 1.40004 9.20005 1.40004 9.20005C1.40004 9.20005 1.40004 9.20005 1.40004 9.20005C1.40004 9.20006 1.40004 9.20006 1.40004 9.20006C1.40004 9.20006 1.40004 9.20006 1.40004 9.20006C1.40004 9.20006 1.40004 9.20006 1.40004 9.20007C1.40004 9.20007 1.40004 9.20007 1.40004 9.20007C1.40004 9.20007 1.40004 9.20007 1.40004 9.20007C1.40004 9.20008 1.40004 9.20008 1.40004 9.20008C1.40004 9.20008 1.40004 9.20008 1.40004 9.20008C1.40004 9.20008 1.40004 9.20009 1.40004 9.20009C1.40004 9.20009 1.40004 9.20009 1.40004 9.20009C1.40004 9.20009 1.40004 9.2001 1.40004 9.2001C1.40004 9.2001 1.40004 9.2001 1.40004 9.2001C1.40004 9.2001 1.40004 9.20011 1.40004 9.20011C1.40004 9.20011 1.40004 9.20011 1.40004 9.20011C1.40004 9.20011 1.40004 9.20012 1.40004 9.20012C1.40004 9.20012 1.40004 9.20012 1.40004 9.20012C1.40004 9.20013 1.40004 9.20013 1.40004 9.20013C1.40004 9.20013 1.40004 9.20013 1.40004 9.20014C1.40004 9.20014 1.40004 9.20014 1.40004 9.20014C1.40004 9.20014 1.40004 9.20015 1.40004 9.20015C1.40004 9.20015 1.40004 9.20015 1.40004 9.20016C1.40004 9.20016 1.40004 9.20016 1.40004 9.20016C1.40004 9.20017 1.40004 9.20017 1.40004 9.20017C1.40004 9.20017 1.40004 9.20017 1.40004 9.20018C1.40004 9.20018 1.40004 9.20018 1.40004 9.20019C1.40004 9.20019 1.40004 9.20019 1.40004 9.20019C1.40004 9.2002 1.40004 9.2002 1.40004 9.2002C1.40004 9.2002 1.40004 9.20021 1.40004 9.20021C1.40004 9.20021 1.40004 9.20021 1.40004 9.20022C1.40004 9.20022 1.40004 9.20022 1.40004 9.20023C1.40004 9.20023 1.40004 9.20023 1.40004 9.20024C1.40004 9.20024 1.40004 9.20024 1.40004 9.20024C1.40004 9.20025 1.40004 9.20025 1.40004 9.20025C1.40004 9.20026 1.40004 9.20026 1.40004 9.20026C1.40004 9.20027 1.40004 9.20027 1.40004 9.20027C1.40004 9.20028 1.40004 9.20028 1.40004 9.20028C1.40004 9.20029 1.40004 9.20029 1.40004 9.20029C1.40004 9.2003 1.40004 9.2003 1.40004 9.2003C1.40004 9.20031 1.40004 9.20031 1.40004 9.20032C1.40004 9.20032 1.40004 9.20032 1.40004 9.20033C1.40004 9.20033 1.40004 9.20033 1.40004 9.20034C1.40004 9.20034 1.40004 9.20035 1.40004 9.20035C1.40004 9.20035 1.40004 9.20036 1.40004 9.20036C1.40004 9.20037 1.40004 9.20037 1.40004 9.20037C1.40004 9.20038 1.40004 9.20038 1.40004 9.20039C1.40004 9.20039 1.40004 9.2004 1.40004 9.2004C1.40004 9.2004 1.40004 9.20041 1.40004 9.20041C1.40004 9.20042 1.40004 9.20042 1.40004 9.20043C1.40004 9.20043 1.40004 9.20043 1.40004 9.20044C1.40004 9.20044 1.40004 9.20045 1.40004 9.20045C1.40004 9.20046 1.40004 9.20046 1.40004 9.20047C1.40004 9.20047 1.40004 9.20048 1.40004 9.20048C1.40004 9.20049 1.40004 9.20049 1.40004 9.2005C1.40004 9.2005 1.40004 9.20051 1.40004 9.20051C1.40004 9.20052 1.40004 9.20052 1.40004 9.20053C1.40004 9.20053 1.40004 9.20054 1.40004 9.20054C1.40004 9.20055 1.40004 9.20055 1.40004 9.20056C1.40004 9.20056 1.40004 9.20057 1.40004 9.20057C1.40004 9.20058 1.40004 9.20059 1.40004 9.20059C1.40004 9.2006 1.40004 9.2006 1.40004 9.20061C1.40004 9.20061 1.40004 9.20062 1.40004 9.20063C1.40004 9.20063 1.40004 9.20064 1.40004 9.20064C1.40004 9.20065 1.40004 9.20065 1.40004 9.20066C1.40004 9.20067 1.40004 9.20067 1.40004 9.20068C1.40004 9.20069 1.40004 9.20069 1.40004 9.2007C1.40004 9.2007 1.40004 9.20071 1.40004 9.20072C1.40004 9.20072 1.40004 9.20073 1.40004 9.20074C1.40004 9.20074 1.40004 9.20075 1.40004 9.20076C1.40004 9.20076 1.40004 9.20077 1.40004 9.20078C1.40004 9.20078 1.40004 9.20079 1.40004 9.2008C1.40004 9.2008 1.40004 9.20081 1.40004 9.20082C1.40004 9.20082 1.40004 9.20083 1.40004 9.20084C1.40004 9.20084 1.40004 9.20085 1.40004 9.20086C1.40004 9.20087 1.40004 9.20087 1.40004 9.20088C1.40004 9.20089 1.40004 9.20089 1.40004 9.2009C1.40004 9.20091 1.40004 9.20092 1.40004 9.20092C1.40004 9.20093 1.40004 9.20094 1.40004 9.20095C1.40004 9.20095 1.40004 9.20096 1.40004 9.20097C1.40004 9.20098 1.40004 9.20099 1.40004 9.20099C1.40004 9.201 1.40004 9.20101 1.40004 9.20102C1.40004 9.20103 1.40004 9.20103 1.40004 9.20104C1.40004 9.20105 1.40004 9.20106 1.40004 9.20107C1.40004 9.20107 1.40004 9.20108 1.40004 9.20109C1.40004 9.2011 1.40004 9.20111 1.40004 9.20112C1.40004 9.20112 1.40004 9.20113 1.40004 9.20114C1.40004 9.20115 1.40004 9.20116 1.40004 9.20117C1.40004 9.20118 1.40004 9.20119 1.40004 9.20119C1.40004 9.2012 1.40004 9.20121 1.40004 9.20122C1.40004 9.20123 1.40004 9.20124 1.40004 9.20125C1.40004 9.20126 1.40004 9.20127 1.40004 9.20128C1.40004 9.20129 1.40004 9.2013 1.40004 9.2013C1.40004 9.20131 1.40004 9.20132 1.40004 9.20133C1.40004 9.20134 1.40004 9.20135 1.40004 9.20136C1.40004 9.20137 1.40004 9.20138 1.40004 9.20139C1.40004 9.2014 1.40004 9.20141 1.40004 9.20142C1.40004 9.20143 1.40004 9.20144 1.40004 9.20145C1.40004 9.20146 1.40004 9.20147 1.40004 9.20148C1.40004 9.20149 1.40004 9.2015 1.40004 9.20151C1.40004 9.20152 1.40004 9.20153 1.40004 9.20155C1.40004 9.20156 1.40004 9.20157 1.40004 9.20158C1.40004 9.20159 1.40004 9.2016 1.40004 9.20161C1.40004 9.20162 1.40004 9.20163 1.40004 9.20164C1.40004 9.20165 1.40004 9.20166 1.40004 9.20168C1.40004 9.20169 1.40004 9.2017 1.40004 9.20171C1.40004 9.20172 1.40004 9.20173 1.40004 9.20174C1.40004 9.20176 1.40004 9.20177 1.40004 9.20178C1.40004 9.20179 1.40004 9.2018 1.40004 9.20181C1.40004 9.20183 1.40004 9.20184 1.40004 9.20185C1.40004 9.20186 1.40004 9.20187 1.40004 9.20189C1.40004 9.2019 1.40004 9.20191 1.40004 9.20192C1.40004 9.20193 1.40004 9.20195 1.40004 9.20196C1.40004 9.20197 1.40004 9.20198 1.40004 9.202C1.40004 9.20201 1.40004 9.20202 1.40004 9.20203C1.40004 9.20205 1.40004 9.20206 1.40004 9.20207C1.40004 9.20209 1.40004 9.2021 1.40004 9.20211C1.40004 9.20212 1.40004 9.20214 1.40004 9.20215C1.40004 9.20216 1.40004 9.20218 1.40004 9.20219C1.40004 9.2022 1.40004 9.20222 1.40004 9.20223C1.40004 9.20224 1.40004 9.20226 1.40004 9.20227C1.40004 9.20229 1.40004 9.2023 1.40004 9.20231C1.40004 9.20233 1.40004 9.20234 1.40004 9.20235C1.40004 9.20237 1.40004 9.20238 1.40004 9.2024C1.40004 9.20241 1.40004 9.20243 1.40004 9.20244C1.40004 9.20245 1.40004 9.20247 1.40004 9.20248C1.40004 9.2025 1.40004 9.20251 1.40004 9.20253C1.40004 9.20254 1.40004 9.20256 1.40004 9.20257C1.40004 9.20259 1.40004 9.2026 1.40004 9.20262C1.40004 9.20263 1.40004 9.20265 1.40004 9.20266C1.40004 9.20268 1.40004 9.20269 1.40004 9.20271C1.40004 9.20272 1.40004 9.20274 1.40004 9.20275C1.40004 9.20277 1.40004 9.20279 1.40004 9.2028C1.40004 9.20282 1.40004 9.20283 1.40004 9.20285C1.40004 9.20286 1.40004 9.20288 1.40004 9.2029C1.40004 9.20291 1.40004 9.20293 1.40004 9.20295C1.40004 9.20296 1.40004 9.20298 1.40004 9.20299C1.40004 9.20301 1.40004 9.20303 1.40004 9.20304C1.40004 9.20306 1.40004 9.20308 1.40004 9.20309C1.40004 9.20311 1.40004 9.20313 1.40004 9.20314C1.40004 9.20316 1.40004 9.20318 1.40004 9.2032C1.40004 9.20321 1.40004 9.20323 1.40004 9.20325C1.40004 9.20327 1.40004 9.20328 1.40004 9.2033C1.40004 9.20332 1.40004 9.20334 1.40004 9.20335C1.40004 9.20337 1.40004 9.20339 1.40004 9.20341C1.40004 9.20342 1.40004 9.20344 1.40004 9.20346C1.40004 9.20348 1.40004 9.2035 1.40004 9.20352C1.40004 9.20353 1.40004 9.20355 1.40004 9.20357C1.40004 9.20359 1.40004 9.20361 1.40004 9.20363C1.40004 9.20365 1.40004 9.20366 1.40004 9.20368C1.40004 9.2037 1.40004 9.20372 1.40004 9.20374C1.40004 9.20376 1.40004 9.20378 1.40004 9.2038C1.40004 9.20382 1.40004 9.20384 1.40004 9.20386C1.40004 9.20387 1.40004 9.20389 1.40004 9.20391C1.40004 9.20393 1.40004 9.20395 1.40004 9.20397C1.40004 9.20399 1.40004 9.20401 1.40004 9.20403C1.40004 9.20405 1.40004 9.20407 1.40004 9.20409C1.40004 9.20411 1.40004 9.20413 1.40004 9.20415C1.40004 9.20418 1.40004 9.2042 1.40004 9.20422C1.40004 9.20424 1.40004 9.20426 1.40004 9.20428C1.40004 9.2043 1.40004 9.20432 1.40004 9.20434C1.40004 9.20436 1.40004 9.20438 1.40004 9.20441C1.40004 9.20443 1.40004 9.20445 1.40004 9.20447C1.40004 9.20449 1.40004 9.20451 1.40004 9.20453C1.40004 9.20456 1.40004 9.20458 1.40004 9.2046C1.40004 9.20462 1.40004 9.20464 1.40004 9.20467C1.40004 9.20469 1.40004 9.20471 1.40004 9.20473C1.40004 9.20475 1.40004 9.20478 1.40004 9.2048C1.40004 9.20482 1.40004 9.20484 1.40004 9.20487C1.40004 9.20489 1.40004 9.20491 1.40004 9.20494C1.40004 9.20496 1.40004 9.20498 1.40004 9.20501C1.40004 9.20503 1.40004 9.20505 1.40004 9.20508C1.40004 9.2051 1.40004 9.20512 1.40004 9.20515C1.40004 9.20517 1.40004 9.20519 1.40004 9.20522C1.40004 9.20524 1.40004 9.20526 1.40004 9.20529C1.40004 9.20531 1.40004 9.20534 1.40004 9.20536C1.40004 9.20539 1.40004 9.20541 1.40004 9.20543C1.40004 9.20546 1.40004 9.20548 1.40004 9.20551C1.40004 9.20553 1.40004 9.20556 1.40004 9.20558C1.40004 9.20561 1.40004 9.20563 1.40004 9.20566C1.40004 9.20568 1.40004 9.20571 1.40004 9.20573C1.40004 9.20576 1.40004 9.20578 1.40004 9.20581C1.40004 9.20584 1.40004 9.20586 1.40004 9.20589C1.40004 9.20591 1.40004 9.20594 1.40004 9.20596C1.40004 9.20599 1.40004 9.20602 1.40004 9.20604C1.40004 9.20607 1.40004 9.2061 1.40004 9.20612C1.40004 9.20615 1.40004 9.20618 1.40004 9.2062C1.40004 9.20623 1.40004 9.20626 1.40004 9.20628C1.40004 9.20631 1.40004 9.20634 1.40004 9.20636C1.40004 9.20639 1.40004 9.20642 1.40004 9.20645C1.40004 9.20647 1.40004 9.2065 1.40004 9.20653C1.40004 9.20656 1.40004 9.20658 1.40004 9.20661C1.40004 9.20664 1.40004 9.20667 1.40004 9.2067C1.40004 9.20672 1.40004 9.20675 1.40004 9.20678C1.40004 9.20681 1.40004 9.20684 1.40004 9.20687C1.40004 9.20689 1.40004 9.20692 1.40004 9.20695C1.40004 9.20698 1.40004 9.20701 1.40004 9.20704C1.40004 9.20707 1.40004 9.2071 1.40004 9.20713C1.40004 9.20716 1.40004 9.20719 1.40004 9.20722C1.40004 9.20724 1.40004 9.20727 1.40004 9.2073C1.40004 9.20733 1.40004 9.20736 1.40004 9.20739C1.40004 9.20742 1.40004 9.20745 1.40004 9.20748C1.40004 9.20752 1.40004 9.20755 1.40004 9.20758C1.40004 9.20761 1.40004 9.20764 1.40004 9.20767C1.40004 9.2077 1.40004 9.20773 1.40004 9.20776C1.40004 9.20779 1.40004 9.20782 1.40004 9.20785C1.40004 9.20789 1.40004 9.20792 1.40004 9.20795C1.40004 9.20798 1.40004 9.20801 1.40004 9.20804C1.40004 9.20808 1.40004 9.20811 1.40004 9.20814C1.40004 9.20817 1.40004 9.2082 1.40004 9.20824C1.40004 9.20827 1.40004 9.2083 1.40004 9.20833C1.40004 9.20837 1.40004 9.2084 1.40004 9.20843C1.40004 9.20846 1.40004 9.2085 1.40004 9.20853C1.40004 9.20856 1.40004 9.2086 1.40004 9.20863C1.40004 9.20866 1.40004 9.2087 1.40004 9.20873C1.40004 9.20876 1.40004 9.2088 1.40004 9.20883C1.40004 9.20886 1.40004 9.2089 1.40004 9.20893C1.40004 9.20897 1.40004 9.209 1.40004 9.20904C1.40004 9.20907 1.40004 9.2091 1.40004 9.20914C1.40004 9.20917 1.40004 9.20921 1.40004 9.20924C1.40004 9.20928 1.40004 9.20931 1.40004 9.20935C1.40004 9.20938 1.40004 9.20942 1.40004 9.20945C1.40004 9.20949 1.40004 9.20953 1.40004 9.20956C1.40004 9.2096 1.40004 9.20963 1.40004 9.20967C1.40004 9.2097 1.40004 9.20974 1.40004 9.20978C1.40004 9.20981 1.40004 9.20985 1.40004 9.20989C1.40004 9.20992 1.40004 9.20996 1.40004 9.21C1.40004 9.21003 1.40004 9.21007 1.40004 9.21011C1.40004 9.21014 1.40004 9.21018 1.40004 9.21022C1.40004 9.21025 1.40004 9.21029 1.40004 9.21033C1.40004 9.21037 1.40004 9.2104 1.40004 9.21044C1.40004 9.21048 1.40004 9.21052 1.40004 9.21056C1.40004 9.21059 1.40004 9.21063 1.40004 9.21067C1.40004 9.21071 1.40004 9.21075 1.40004 9.21079C1.40004 9.21083 1.40004 9.21086 1.40004 9.2109C1.40004 9.21094 1.40004 9.21098 1.40004 9.21102C1.40004 9.21106 1.40004 9.2111 1.40004 9.21114C1.40004 9.21118 1.40004 9.21122 1.40004 9.21126C1.40004 9.2113 1.40004 9.21134 1.40004 9.21138C1.40004 9.21142 1.40004 9.21146 1.40004 9.2115C1.40004 9.21154 1.40004 9.21158 1.40004 9.21162C1.40004 9.21166 1.40004 9.2117 1.40004 9.21174C1.40004 9.21178 1.40004 9.21182 1.40004 9.21186C1.40004 9.21191 1.40004 9.21195 1.40004 9.21199C1.40004 9.21203 1.40004 9.21207 1.40004 9.21211C1.40004 9.21216 1.40004 9.2122 1.40004 9.21224C1.40004 9.21228 1.40004 9.21232 1.40004 9.21237C1.40004 9.21241 1.40004 9.21245 1.40004 9.21249C1.40004 9.21254 1.40004 9.21258 1.40004 9.21262C1.40004 9.21267 1.40004 9.21271 1.40004 9.21275C1.40004 9.21279 1.40004 9.21284 1.40004 9.21288C1.40004 9.21292 1.40004 9.21297 1.40004 9.21301C1.40004 9.21306 1.40004 9.2131 1.40004 9.21314C1.40004 9.21319 1.40004 9.21323 1.40004 9.21328C1.40004 9.21332 1.40004 9.21337 1.40004 9.21341C1.40004 9.21346 1.40004 9.2135 1.40004 9.21355C1.40004 9.21359 1.40004 9.21364 1.40004 9.21368C1.40004 9.21373 1.40004 9.21377 1.40004 9.21382C1.40004 9.21386 1.40004 9.21391 1.40004 9.21395C1.40004 9.214 1.40004 9.21405 1.40004 9.21409C1.40004 9.21414 1.40004 9.21419 1.40004 9.21423C1.40004 9.21428 1.40004 9.21432 1.40004 9.21437C1.40004 9.21442 1.40004 9.21447 1.40004 9.21451C1.40004 9.21456 1.40004 9.21461 1.40004 9.21465C1.40004 9.2147 1.40004 9.21475 1.40004 9.2148C1.40004 9.21484 1.40004 9.21489 1.40004 9.21494C1.40004 9.21499 1.40004 9.21504 1.40004 9.21509C1.40004 9.21513 1.40004 9.21518 1.40004 9.21523C1.40004 9.21528 1.40004 9.21533 1.40004 9.21538C1.40004 9.21543 1.40004 9.21548 1.40004 9.21552C1.40004 9.21557 1.40004 9.21562 1.40004 9.21567C1.40004 9.21572 1.40004 9.21577 1.40004 9.21582C1.40004 9.21587 1.40004 9.21592 1.40004 9.21597C1.40004 9.21602 1.40004 9.21607 1.40004 9.21612C1.40004 9.21617 1.40004 9.21623 1.40004 9.21628C1.40004 9.21633 1.40004 9.21638 1.40004 9.21643C1.40004 9.21648 1.40004 9.21653 1.40004 9.21658C1.40004 9.21663 1.40004 9.21669 1.40004 9.21674C1.40004 9.21679 1.40004 9.21684 1.40004 9.21689C1.40004 9.21695 1.40004 9.217 1.40004 9.21705C1.40004 9.2171 1.40004 9.21716 1.40004 9.21721C1.40004 9.21726 1.40004 9.21731 1.40004 9.21737C1.40004 9.21742 1.40004 9.21747 1.40004 9.21753C1.40004 9.21758 1.40004 9.21763 1.40004 9.21769C1.40004 9.21774 1.40004 9.2178 1.40004 9.21785C1.40004 9.2179 1.40004 9.21796 1.40004 9.21801C1.40004 9.21807 1.40004 9.21812 1.40004 9.21818C1.40004 9.21823 1.40004 9.21829 1.40004 9.21834C1.40004 9.2184 1.40004 9.21845 1.40004 9.21851C1.40004 9.21856 1.40004 9.21862 1.40004 9.21867C1.40004 9.21873 1.40004 9.21879 1.40004 9.21884C1.40004 9.2189 1.40004 9.21895 1.40004 9.21901C1.40004 9.21907 1.40004 9.21912 1.40004 9.21918C1.40004 9.21924 1.40004 9.21929 1.40004 9.21935C1.40004 9.21941 1.40004 9.21946 1.40004 9.21952C1.40004 9.21958 1.40004 9.21964 1.40004 9.2197C1.40004 9.21975 1.40004 9.21981 1.40004 9.21987C1.40004 9.21993 1.40004 9.21999 1.40004 9.22004C1.40004 9.2201 1.40004 9.22016 1.40004 9.22022C1.40004 9.22028 1.40004 9.22034 1.40004 9.2204C1.40004 9.22046 1.40004 9.22051 1.40004 9.22057C1.40004 9.22063 1.40004 9.22069 1.40004 9.22075C1.40004 9.22081 1.40004 9.22087 1.40004 9.22093C1.40004 9.22099 1.40004 9.22105 1.40004 9.22111C1.40004 9.22117 1.40004 9.22124 1.40004 9.2213C1.40004 9.22136 1.40004 9.22142 1.40004 9.22148C1.40004 9.22154 1.40004 9.2216 1.40004 9.22166C1.40004 9.22172 1.40004 9.22179 1.40004 9.22185C1.40004 9.22191 1.40004 9.22197 1.40004 9.22203C1.40004 9.2221 1.40004 9.22216 1.40004 9.22222C1.40004 9.22228 1.40004 9.22235 1.40004 9.22241C1.40004 9.22247 1.40004 9.22254 1.40004 9.2226C1.40004 9.22266 1.40004 9.22273 1.40004 9.22279C1.40004 9.22285 1.40004 9.22292 1.40004 9.22298C1.40004 9.22305 1.40004 9.22311 1.40004 9.22317C1.40004 9.22324 1.40004 9.2233 1.40004 9.22337C1.40004 9.22343 1.40004 9.2235 1.40004 9.22356C1.40004 9.22363 1.40004 9.22369 1.40004 9.22376C1.40004 9.22382 1.40004 9.22389 1.40004 9.22396C1.40004 9.22402 1.40004 9.22409 1.40004 9.22415C1.40004 9.22422 1.40004 9.22429 1.40004 9.22435C1.40004 9.22442 1.40004 9.22449 1.40004 9.22455C1.40004 9.22462 1.40004 9.22469 1.40004 9.22475C1.40004 9.22482 1.40004 9.22489 1.40004 9.22496C1.40004 9.22502 1.40004 9.22509 1.40004 9.22516C1.40004 9.22523 1.40004 9.2253 1.40004 9.22536C1.40004 9.22543 1.40004 9.2255 1.40004 9.22557C1.40004 9.22564 1.40004 9.22571 1.40004 9.22578C1.40004 9.22585 1.40004 9.22591 1.40004 9.22598C1.40004 9.22605 1.40004 9.22612 1.40004 9.22619C1.40004 9.22626 1.40004 9.22633 1.40004 9.2264C1.40004 9.22647 1.40004 9.22654 1.40004 9.22661C1.40004 9.22669 1.40004 9.22676 1.40004 9.22683C1.40004 9.2269 1.40004 9.22697 1.40004 9.22704C1.40004 9.22711 1.40004 9.22718 1.40004 9.22725C1.40004 9.22733 1.40004 9.2274 1.40004 9.22747C1.40004 9.22754 1.40004 9.22762 1.40004 9.22769C1.40004 9.22776 1.40004 9.22783 1.40004 9.22791C1.40004 9.22798 1.40004 9.22805 1.40004 9.22812C1.40004 9.2282 1.40004 9.22827 1.40004 9.22834C1.40004 9.22842 1.40004 9.22849 1.40004 9.22857C1.40004 9.22864 1.40004 9.22871 1.40004 9.22879C1.40004 9.22886 1.40004 9.22894 1.40004 9.22901C1.40004 9.22909 1.40004 9.22916 1.40004 9.22924C1.40004 9.22931 1.40004 9.22939 1.40004 9.22946C1.40004 9.22954 1.40004 9.22962 1.40004 9.22969C1.40004 9.22977 1.40004 9.22984 1.40004 9.22992C1.40004 9.23 1.40004 9.23007 1.40004 9.23015C1.40004 9.23023 1.40004 9.2303 1.40004 9.23038C1.40004 9.23046 1.40004 9.23053 1.40004 9.23061C1.40004 9.23069 1.40004 9.23077 1.40004 9.23084C1.40004 9.23092 1.40004 9.231 1.40004 9.23108C1.40004 9.23116 1.40004 9.23124 1.40004 9.23131C1.40004 9.23139 1.40004 9.23147 1.40004 9.23155C1.40004 9.23163 1.40004 9.23171 1.40004 9.23179C1.40004 9.23187 1.40004 9.23195 1.40004 9.23203C1.40004 9.23211 1.40004 9.23219 1.40004 9.23227C1.40004 9.23235 1.40004 9.23243 1.40004 9.23251C1.40004 9.23259 1.40004 9.23267 1.40004 9.23275C1.40004 9.23283 1.40004 9.23291 1.40004 9.233C1.40004 9.23308 1.40004 9.23316 1.40004 9.23324C1.40004 9.23332 1.40004 9.23341 1.40004 9.23349C1.40004 9.23357 1.40004 9.23365 1.40004 9.23373C1.40004 9.23382 1.40004 9.2339 1.40004 9.23398C1.40004 9.23407 1.40004 9.23415 1.40004 9.23423C1.40004 9.23432 1.40004 9.2344 1.40004 9.23448C1.40004 9.23457 1.40004 9.23465 1.40004 9.23474C1.40004 9.23482 1.40004 9.23491 1.40004 9.23499C1.40004 9.23507 1.40004 9.23516 1.40004 9.23525C1.40004 9.23533 1.40004 9.23542 1.40004 9.2355C1.40004 9.23559 1.40004 9.23567 1.40004 9.23576C1.40004 9.23584 1.40004 9.23593 1.40004 9.23602C1.40004 9.2361 1.40004 9.23619 1.40004 9.23628C1.40004 9.23636 1.40004 9.23645 1.40004 9.23654C1.40004 9.23662 1.40004 9.23671 1.40004 9.2368C1.40004 9.23689 1.40004 9.23698 1.40004 9.23706C1.40004 9.23715 1.40004 9.23724 1.40004 9.23733C1.40004 9.23742 1.40004 9.2375 1.40004 9.23759C1.40004 9.23768 1.40004 9.23777 1.40004 9.23786C1.40004 9.23795 1.40004 9.23804 1.40004 9.23813C1.40004 9.23822 1.40004 9.23831 1.40004 9.2384C1.40004 9.23849 1.40004 9.23858 1.40004 9.23867C1.40004 9.23876 1.40004 9.23885 1.40004 9.23894C1.40004 9.23903 1.40004 9.23913 1.40004 9.23922C1.40004 9.23931 1.40004 9.2394 1.40004 9.23949C1.40004 9.23958 1.40004 9.23968 1.40004 9.23977C1.40004 9.23986 1.40004 9.23995 1.40004 9.24005C1.40004 9.24014 1.40004 9.24023 1.40004 9.24032C1.40004 9.24042 1.40004 9.24051 1.40004 9.2406C1.40004 9.2407 1.40004 9.24079 1.40004 9.24089C1.40004 9.24098 1.40004 9.24107 1.40004 9.24117C1.40004 9.24126 1.40004 9.24136 1.40004 9.24145C1.40004 9.24155 1.40004 9.24164 1.40004 9.24174C1.40004 9.24183 1.40004 9.24193 1.40004 9.24202C1.40004 9.24212 1.40004 9.24222 1.40004 9.24231C1.40004 9.24241 1.40004 9.2425 1.40004 9.2426C1.40004 9.2427 1.40004 9.24279 1.40004 9.24289C1.40004 9.24299 1.40004 9.24308 1.40004 9.24318C1.40004 9.24328 1.40004 9.24338 1.40004 9.24348C1.40004 9.24357 1.40004 9.24367 1.40004 9.24377C1.40004 9.24387 1.40004 9.24397 1.40004 9.24407C1.40004 9.24416 1.40004 9.24426 1.40004 9.24436C1.40004 9.24446 1.40004 9.24456 1.40004 9.24466C1.40004 9.24476 1.40004 9.24486 1.40004 9.24496C1.40004 9.24506 1.40004 9.24516 1.40004 9.24526C1.40004 9.24536 1.40004 9.24546 1.40004 9.24556C1.40004 9.24567 1.40004 9.24577 1.40004 9.24587C1.40004 9.24597 1.40004 9.24607 1.40004 9.24617C1.40004 9.24628 1.40004 9.24638 1.40004 9.24648C1.40004 9.24658 1.40004 9.24669 1.40004 9.24679C1.40004 9.24689 1.40004 9.24699 1.40004 9.2471C1.40004 9.2472 1.40004 9.2473 1.40004 9.24741C1.40004 9.24751 1.40004 9.24762 1.40004 9.24772C1.40004 9.24782 1.40004 9.24793 1.40004 9.24803C1.40004 9.24814 1.40004 9.24824 1.40004 9.24835C1.40004 9.24845 1.40004 9.24856 1.40004 9.24866C1.40004 9.24877 1.40004 9.24887 1.40004 9.24898C1.40004 9.24909 1.40004 9.24919 1.40004 9.2493C1.40004 9.24941 1.40004 9.24951 1.40004 9.24962C1.40004 9.24973 1.40004 9.24983 1.40004 9.24994C1.40004 9.25005 1.40004 9.25016 1.40004 9.25026C1.40004 9.25037 1.40004 9.25048 1.40004 9.25059C1.40004 9.2507 1.40004 9.2508 1.40004 9.25091C1.40004 9.25102 1.40004 9.25113 1.40004 9.25124C1.40004 9.25135 1.40004 9.25146 1.40004 9.25157C1.40004 9.25168 1.40004 9.25179 1.40004 9.2519C1.40004 9.25201 1.40004 9.25212 1.40004 9.25223C1.40004 9.25234 1.40004 9.25245 1.40004 9.25256C1.40004 9.25267 1.40004 9.25279 1.40004 9.2529C1.40004 9.25301 1.40004 9.25312 1.40004 9.25323C1.40004 9.25335 1.40004 9.25346 1.40004 9.25357C1.40004 9.25368 1.40004 9.2538 1.40004 9.25391C1.40004 9.25402 1.40004 9.25413 1.40004 9.25425C1.40004 9.25436 1.40004 9.25448 1.40004 9.25459C1.40004 9.2547 1.40004 9.25482 1.40004 9.25493C1.40004 9.25505 1.40004 9.25516 1.40004 9.25528C1.40004 9.25539 1.40004 9.25551 1.40004 9.25562C1.40004 9.25574 1.40004 9.25585 1.40004 9.25597C1.40004 9.25608 1.40004 9.2562 1.40004 9.25632C1.40004 9.25643 1.40004 9.25655 1.40004 9.25667C1.40004 9.25678 1.40004 9.2569 1.40004 9.25702C1.40004 9.25713 1.40004 9.25725 1.40004 9.25737C1.40004 9.25749 1.40004 9.25761 1.40004 9.25772C1.40004 9.25784 1.40004 9.25796 1.40004 9.25808C1.40004 9.2582 1.40004 9.25832 1.40004 9.25844C1.40004 9.25856 1.40004 9.25868 1.40004 9.2588C1.40004 9.25891 1.40004 9.25904 1.40004 9.25916C1.40004 9.25928 1.40004 9.2594 1.40004 9.25952C1.40004 9.25964 1.40004 9.25976 1.40004 9.25988C1.40004 9.26 1.40004 9.26012 1.40004 9.26024C1.40004 9.26037 1.40004 9.26049 1.40004 9.26061C1.40004 9.26073 1.40004 9.26085 1.40004 9.26098C1.40004 9.2611 1.40004 9.26122 1.40004 9.26135C1.40004 9.26147 1.40004 9.26159 1.40004 9.26172C1.40004 9.26184 1.40004 9.26196 1.40004 9.26209C1.40004 9.26221 1.40004 9.26234 1.40004 9.26246C1.40004 9.26259 1.40004 9.26271 1.40004 9.26284C1.40004 9.26296 1.40004 9.26309 1.40004 9.26321C1.40004 9.26334 1.40004 9.26346 1.40004 9.26359C1.40004 9.26372 1.40004 9.26384 1.40004 9.26397C1.40004 9.2641 1.40004 9.26422 1.40004 9.26435C1.40004 9.26448 1.40004 9.26461 1.40004 9.26473C1.40004 9.26486 1.40004 9.26499 1.40004 9.26512C1.40004 9.26524 1.40004 9.26537 1.40004 9.2655C1.40004 9.26563 1.40004 9.26576 1.40004 9.26589C1.40004 9.26602 1.40004 9.26615 1.40004 9.26628C1.40004 9.26641 1.40004 9.26654 1.40004 9.26667H3.80004C3.80004 9.26654 3.80004 9.26641 3.80004 9.26628C3.80004 9.26615 3.80004 9.26602 3.80004 9.26589C3.80004 9.26576 3.80004 9.26563 3.80004 9.2655C3.80004 9.26537 3.80004 9.26524 3.80004 9.26512C3.80004 9.26499 3.80004 9.26486 3.80004 9.26473C3.80004 9.26461 3.80004 9.26448 3.80004 9.26435C3.80004 9.26422 3.80004 9.2641 3.80004 9.26397C3.80004 9.26384 3.80004 9.26372 3.80004 9.26359C3.80004 9.26346 3.80004 9.26334 3.80004 9.26321C3.80004 9.26309 3.80004 9.26296 3.80004 9.26284C3.80004 9.26271 3.80004 9.26259 3.80004 9.26246C3.80004 9.26234 3.80004 9.26221 3.80004 9.26209C3.80004 9.26196 3.80004 9.26184 3.80004 9.26172C3.80004 9.26159 3.80004 9.26147 3.80004 9.26135C3.80004 9.26122 3.80004 9.2611 3.80004 9.26098C3.80004 9.26085 3.80004 9.26073 3.80004 9.26061C3.80004 9.26049 3.80004 9.26037 3.80004 9.26024C3.80004 9.26012 3.80004 9.26 3.80004 9.25988C3.80004 9.25976 3.80004 9.25964 3.80004 9.25952C3.80004 9.2594 3.80004 9.25928 3.80004 9.25916C3.80004 9.25904 3.80004 9.25891 3.80004 9.2588C3.80004 9.25868 3.80004 9.25856 3.80004 9.25844C3.80004 9.25832 3.80004 9.2582 3.80004 9.25808C3.80004 9.25796 3.80004 9.25784 3.80004 9.25772C3.80004 9.25761 3.80004 9.25749 3.80004 9.25737C3.80004 9.25725 3.80004 9.25713 3.80004 9.25702C3.80004 9.2569 3.80004 9.25678 3.80004 9.25667C3.80004 9.25655 3.80004 9.25643 3.80004 9.25632C3.80004 9.2562 3.80004 9.25608 3.80004 9.25597C3.80004 9.25585 3.80004 9.25574 3.80004 9.25562C3.80004 9.25551 3.80004 9.25539 3.80004 9.25528C3.80004 9.25516 3.80004 9.25505 3.80004 9.25493C3.80004 9.25482 3.80004 9.2547 3.80004 9.25459C3.80004 9.25448 3.80004 9.25436 3.80004 9.25425C3.80004 9.25413 3.80004 9.25402 3.80004 9.25391C3.80004 9.2538 3.80004 9.25368 3.80004 9.25357C3.80004 9.25346 3.80004 9.25335 3.80004 9.25323C3.80004 9.25312 3.80004 9.25301 3.80004 9.2529C3.80004 9.25279 3.80004 9.25267 3.80004 9.25256C3.80004 9.25245 3.80004 9.25234 3.80004 9.25223C3.80004 9.25212 3.80004 9.25201 3.80004 9.2519C3.80004 9.25179 3.80004 9.25168 3.80004 9.25157C3.80004 9.25146 3.80004 9.25135 3.80004 9.25124C3.80004 9.25113 3.80004 9.25102 3.80004 9.25091C3.80004 9.2508 3.80004 9.2507 3.80004 9.25059C3.80004 9.25048 3.80004 9.25037 3.80004 9.25026C3.80004 9.25016 3.80004 9.25005 3.80004 9.24994C3.80004 9.24983 3.80004 9.24973 3.80004 9.24962C3.80004 9.24951 3.80004 9.24941 3.80004 9.2493C3.80004 9.24919 3.80004 9.24909 3.80004 9.24898C3.80004 9.24887 3.80004 9.24877 3.80004 9.24866C3.80004 9.24856 3.80004 9.24845 3.80004 9.24835C3.80004 9.24824 3.80004 9.24814 3.80004 9.24803C3.80004 9.24793 3.80004 9.24782 3.80004 9.24772C3.80004 9.24762 3.80004 9.24751 3.80004 9.24741C3.80004 9.2473 3.80004 9.2472 3.80004 9.2471C3.80004 9.24699 3.80004 9.24689 3.80004 9.24679C3.80004 9.24669 3.80004 9.24658 3.80004 9.24648C3.80004 9.24638 3.80004 9.24628 3.80004 9.24617C3.80004 9.24607 3.80004 9.24597 3.80004 9.24587C3.80004 9.24577 3.80004 9.24567 3.80004 9.24556C3.80004 9.24546 3.80004 9.24536 3.80004 9.24526C3.80004 9.24516 3.80004 9.24506 3.80004 9.24496C3.80004 9.24486 3.80004 9.24476 3.80004 9.24466C3.80004 9.24456 3.80004 9.24446 3.80004 9.24436C3.80004 9.24426 3.80004 9.24416 3.80004 9.24407C3.80004 9.24397 3.80004 9.24387 3.80004 9.24377C3.80004 9.24367 3.80004 9.24357 3.80004 9.24348C3.80004 9.24338 3.80004 9.24328 3.80004 9.24318C3.80004 9.24308 3.80004 9.24299 3.80004 9.24289C3.80004 9.24279 3.80004 9.2427 3.80004 9.2426C3.80004 9.2425 3.80004 9.24241 3.80004 9.24231C3.80004 9.24222 3.80004 9.24212 3.80004 9.24202C3.80004 9.24193 3.80004 9.24183 3.80004 9.24174C3.80004 9.24164 3.80004 9.24155 3.80004 9.24145C3.80004 9.24136 3.80004 9.24126 3.80004 9.24117C3.80004 9.24107 3.80004 9.24098 3.80004 9.24089C3.80004 9.24079 3.80004 9.2407 3.80004 9.2406C3.80004 9.24051 3.80004 9.24042 3.80004 9.24032C3.80004 9.24023 3.80004 9.24014 3.80004 9.24005C3.80004 9.23995 3.80004 9.23986 3.80004 9.23977C3.80004 9.23968 3.80004 9.23958 3.80004 9.23949C3.80004 9.2394 3.80004 9.23931 3.80004 9.23922C3.80004 9.23913 3.80004 9.23903 3.80004 9.23894C3.80004 9.23885 3.80004 9.23876 3.80004 9.23867C3.80004 9.23858 3.80004 9.23849 3.80004 9.2384C3.80004 9.23831 3.80004 9.23822 3.80004 9.23813C3.80004 9.23804 3.80004 9.23795 3.80004 9.23786C3.80004 9.23777 3.80004 9.23768 3.80004 9.23759C3.80004 9.2375 3.80004 9.23742 3.80004 9.23733C3.80004 9.23724 3.80004 9.23715 3.80004 9.23706C3.80004 9.23698 3.80004 9.23689 3.80004 9.2368C3.80004 9.23671 3.80004 9.23662 3.80004 9.23654C3.80004 9.23645 3.80004 9.23636 3.80004 9.23628C3.80004 9.23619 3.80004 9.2361 3.80004 9.23602C3.80004 9.23593 3.80004 9.23584 3.80004 9.23576C3.80004 9.23567 3.80004 9.23559 3.80004 9.2355C3.80004 9.23542 3.80004 9.23533 3.80004 9.23525C3.80004 9.23516 3.80004 9.23507 3.80004 9.23499C3.80004 9.23491 3.80004 9.23482 3.80004 9.23474C3.80004 9.23465 3.80004 9.23457 3.80004 9.23448C3.80004 9.2344 3.80004 9.23432 3.80004 9.23423C3.80004 9.23415 3.80004 9.23407 3.80004 9.23398C3.80004 9.2339 3.80004 9.23382 3.80004 9.23373C3.80004 9.23365 3.80004 9.23357 3.80004 9.23349C3.80004 9.23341 3.80004 9.23332 3.80004 9.23324C3.80004 9.23316 3.80004 9.23308 3.80004 9.233C3.80004 9.23291 3.80004 9.23283 3.80004 9.23275C3.80004 9.23267 3.80004 9.23259 3.80004 9.23251C3.80004 9.23243 3.80004 9.23235 3.80004 9.23227C3.80004 9.23219 3.80004 9.23211 3.80004 9.23203C3.80004 9.23195 3.80004 9.23187 3.80004 9.23179C3.80004 9.23171 3.80004 9.23163 3.80004 9.23155C3.80004 9.23147 3.80004 9.23139 3.80004 9.23131C3.80004 9.23124 3.80004 9.23116 3.80004 9.23108C3.80004 9.231 3.80004 9.23092 3.80004 9.23084C3.80004 9.23077 3.80004 9.23069 3.80004 9.23061C3.80004 9.23053 3.80004 9.23046 3.80004 9.23038C3.80004 9.2303 3.80004 9.23023 3.80004 9.23015C3.80004 9.23007 3.80004 9.23 3.80004 9.22992C3.80004 9.22984 3.80004 9.22977 3.80004 9.22969C3.80004 9.22962 3.80004 9.22954 3.80004 9.22946C3.80004 9.22939 3.80004 9.22931 3.80004 9.22924C3.80004 9.22916 3.80004 9.22909 3.80004 9.22901C3.80004 9.22894 3.80004 9.22886 3.80004 9.22879C3.80004 9.22871 3.80004 9.22864 3.80004 9.22857C3.80004 9.22849 3.80004 9.22842 3.80004 9.22834C3.80004 9.22827 3.80004 9.2282 3.80004 9.22812C3.80004 9.22805 3.80004 9.22798 3.80004 9.22791C3.80004 9.22783 3.80004 9.22776 3.80004 9.22769C3.80004 9.22762 3.80004 9.22754 3.80004 9.22747C3.80004 9.2274 3.80004 9.22733 3.80004 9.22725C3.80004 9.22718 3.80004 9.22711 3.80004 9.22704C3.80004 9.22697 3.80004 9.2269 3.80004 9.22683C3.80004 9.22676 3.80004 9.22669 3.80004 9.22661C3.80004 9.22654 3.80004 9.22647 3.80004 9.2264C3.80004 9.22633 3.80004 9.22626 3.80004 9.22619C3.80004 9.22612 3.80004 9.22605 3.80004 9.22598C3.80004 9.22591 3.80004 9.22585 3.80004 9.22578C3.80004 9.22571 3.80004 9.22564 3.80004 9.22557C3.80004 9.2255 3.80004 9.22543 3.80004 9.22536C3.80004 9.2253 3.80004 9.22523 3.80004 9.22516C3.80004 9.22509 3.80004 9.22502 3.80004 9.22496C3.80004 9.22489 3.80004 9.22482 3.80004 9.22475C3.80004 9.22469 3.80004 9.22462 3.80004 9.22455C3.80004 9.22449 3.80004 9.22442 3.80004 9.22435C3.80004 9.22429 3.80004 9.22422 3.80004 9.22415C3.80004 9.22409 3.80004 9.22402 3.80004 9.22396C3.80004 9.22389 3.80004 9.22382 3.80004 9.22376C3.80004 9.22369 3.80004 9.22363 3.80004 9.22356C3.80004 9.2235 3.80004 9.22343 3.80004 9.22337C3.80004 9.2233 3.80004 9.22324 3.80004 9.22317C3.80004 9.22311 3.80004 9.22305 3.80004 9.22298C3.80004 9.22292 3.80004 9.22285 3.80004 9.22279C3.80004 9.22273 3.80004 9.22266 3.80004 9.2226C3.80004 9.22254 3.80004 9.22247 3.80004 9.22241C3.80004 9.22235 3.80004 9.22228 3.80004 9.22222C3.80004 9.22216 3.80004 9.2221 3.80004 9.22203C3.80004 9.22197 3.80004 9.22191 3.80004 9.22185C3.80004 9.22179 3.80004 9.22172 3.80004 9.22166C3.80004 9.2216 3.80004 9.22154 3.80004 9.22148C3.80004 9.22142 3.80004 9.22136 3.80004 9.2213C3.80004 9.22124 3.80004 9.22117 3.80004 9.22111C3.80004 9.22105 3.80004 9.22099 3.80004 9.22093C3.80004 9.22087 3.80004 9.22081 3.80004 9.22075C3.80004 9.22069 3.80004 9.22063 3.80004 9.22057C3.80004 9.22051 3.80004 9.22046 3.80004 9.2204C3.80004 9.22034 3.80004 9.22028 3.80004 9.22022C3.80004 9.22016 3.80004 9.2201 3.80004 9.22004C3.80004 9.21999 3.80004 9.21993 3.80004 9.21987C3.80004 9.21981 3.80004 9.21975 3.80004 9.2197C3.80004 9.21964 3.80004 9.21958 3.80004 9.21952C3.80004 9.21946 3.80004 9.21941 3.80004 9.21935C3.80004 9.21929 3.80004 9.21924 3.80004 9.21918C3.80004 9.21912 3.80004 9.21907 3.80004 9.21901C3.80004 9.21895 3.80004 9.2189 3.80004 9.21884C3.80004 9.21879 3.80004 9.21873 3.80004 9.21867C3.80004 9.21862 3.80004 9.21856 3.80004 9.21851C3.80004 9.21845 3.80004 9.2184 3.80004 9.21834C3.80004 9.21829 3.80004 9.21823 3.80004 9.21818C3.80004 9.21812 3.80004 9.21807 3.80004 9.21801C3.80004 9.21796 3.80004 9.2179 3.80004 9.21785C3.80004 9.2178 3.80004 9.21774 3.80004 9.21769C3.80004 9.21763 3.80004 9.21758 3.80004 9.21753C3.80004 9.21747 3.80004 9.21742 3.80004 9.21737C3.80004 9.21731 3.80004 9.21726 3.80004 9.21721C3.80004 9.21716 3.80004 9.2171 3.80004 9.21705C3.80004 9.217 3.80004 9.21695 3.80004 9.21689C3.80004 9.21684 3.80004 9.21679 3.80004 9.21674C3.80004 9.21669 3.80004 9.21663 3.80004 9.21658C3.80004 9.21653 3.80004 9.21648 3.80004 9.21643C3.80004 9.21638 3.80004 9.21633 3.80004 9.21628C3.80004 9.21623 3.80004 9.21617 3.80004 9.21612C3.80004 9.21607 3.80004 9.21602 3.80004 9.21597C3.80004 9.21592 3.80004 9.21587 3.80004 9.21582C3.80004 9.21577 3.80004 9.21572 3.80004 9.21567C3.80004 9.21562 3.80004 9.21557 3.80004 9.21552C3.80004 9.21548 3.80004 9.21543 3.80004 9.21538C3.80004 9.21533 3.80004 9.21528 3.80004 9.21523C3.80004 9.21518 3.80004 9.21513 3.80004 9.21509C3.80004 9.21504 3.80004 9.21499 3.80004 9.21494C3.80004 9.21489 3.80004 9.21484 3.80004 9.2148C3.80004 9.21475 3.80004 9.2147 3.80004 9.21465C3.80004 9.21461 3.80004 9.21456 3.80004 9.21451C3.80004 9.21447 3.80004 9.21442 3.80004 9.21437C3.80004 9.21432 3.80004 9.21428 3.80004 9.21423C3.80004 9.21419 3.80004 9.21414 3.80004 9.21409C3.80004 9.21405 3.80004 9.214 3.80004 9.21395C3.80004 9.21391 3.80004 9.21386 3.80004 9.21382C3.80004 9.21377 3.80004 9.21373 3.80004 9.21368C3.80004 9.21364 3.80004 9.21359 3.80004 9.21355C3.80004 9.2135 3.80004 9.21346 3.80004 9.21341C3.80004 9.21337 3.80004 9.21332 3.80004 9.21328C3.80004 9.21323 3.80004 9.21319 3.80004 9.21314C3.80004 9.2131 3.80004 9.21306 3.80004 9.21301C3.80004 9.21297 3.80004 9.21292 3.80004 9.21288C3.80004 9.21284 3.80004 9.21279 3.80004 9.21275C3.80004 9.21271 3.80004 9.21267 3.80004 9.21262C3.80004 9.21258 3.80004 9.21254 3.80004 9.21249C3.80004 9.21245 3.80004 9.21241 3.80004 9.21237C3.80004 9.21232 3.80004 9.21228 3.80004 9.21224C3.80004 9.2122 3.80004 9.21216 3.80004 9.21211C3.80004 9.21207 3.80004 9.21203 3.80004 9.21199C3.80004 9.21195 3.80004 9.21191 3.80004 9.21186C3.80004 9.21182 3.80004 9.21178 3.80004 9.21174C3.80004 9.2117 3.80004 9.21166 3.80004 9.21162C3.80004 9.21158 3.80004 9.21154 3.80004 9.2115C3.80004 9.21146 3.80004 9.21142 3.80004 9.21138C3.80004 9.21134 3.80004 9.2113 3.80004 9.21126C3.80004 9.21122 3.80004 9.21118 3.80004 9.21114C3.80004 9.2111 3.80004 9.21106 3.80004 9.21102C3.80004 9.21098 3.80004 9.21094 3.80004 9.2109C3.80004 9.21086 3.80004 9.21083 3.80004 9.21079C3.80004 9.21075 3.80004 9.21071 3.80004 9.21067C3.80004 9.21063 3.80004 9.21059 3.80004 9.21056C3.80004 9.21052 3.80004 9.21048 3.80004 9.21044C3.80004 9.2104 3.80004 9.21037 3.80004 9.21033C3.80004 9.21029 3.80004 9.21025 3.80004 9.21022C3.80004 9.21018 3.80004 9.21014 3.80004 9.21011C3.80004 9.21007 3.80004 9.21003 3.80004 9.21C3.80004 9.20996 3.80004 9.20992 3.80004 9.20989C3.80004 9.20985 3.80004 9.20981 3.80004 9.20978C3.80004 9.20974 3.80004 9.2097 3.80004 9.20967C3.80004 9.20963 3.80004 9.2096 3.80004 9.20956C3.80004 9.20953 3.80004 9.20949 3.80004 9.20945C3.80004 9.20942 3.80004 9.20938 3.80004 9.20935C3.80004 9.20931 3.80004 9.20928 3.80004 9.20924C3.80004 9.20921 3.80004 9.20917 3.80004 9.20914C3.80004 9.2091 3.80004 9.20907 3.80004 9.20904C3.80004 9.209 3.80004 9.20897 3.80004 9.20893C3.80004 9.2089 3.80004 9.20886 3.80004 9.20883C3.80004 9.2088 3.80004 9.20876 3.80004 9.20873C3.80004 9.2087 3.80004 9.20866 3.80004 9.20863C3.80004 9.2086 3.80004 9.20856 3.80004 9.20853C3.80004 9.2085 3.80004 9.20846 3.80004 9.20843C3.80004 9.2084 3.80004 9.20837 3.80004 9.20833C3.80004 9.2083 3.80004 9.20827 3.80004 9.20824C3.80004 9.2082 3.80004 9.20817 3.80004 9.20814C3.80004 9.20811 3.80004 9.20808 3.80004 9.20804C3.80004 9.20801 3.80004 9.20798 3.80004 9.20795C3.80004 9.20792 3.80004 9.20789 3.80004 9.20785C3.80004 9.20782 3.80004 9.20779 3.80004 9.20776C3.80004 9.20773 3.80004 9.2077 3.80004 9.20767C3.80004 9.20764 3.80004 9.20761 3.80004 9.20758C3.80004 9.20755 3.80004 9.20752 3.80004 9.20748C3.80004 9.20745 3.80004 9.20742 3.80004 9.20739C3.80004 9.20736 3.80004 9.20733 3.80004 9.2073C3.80004 9.20727 3.80004 9.20724 3.80004 9.20722C3.80004 9.20719 3.80004 9.20716 3.80004 9.20713C3.80004 9.2071 3.80004 9.20707 3.80004 9.20704C3.80004 9.20701 3.80004 9.20698 3.80004 9.20695C3.80004 9.20692 3.80004 9.20689 3.80004 9.20687C3.80004 9.20684 3.80004 9.20681 3.80004 9.20678C3.80004 9.20675 3.80004 9.20672 3.80004 9.2067C3.80004 9.20667 3.80004 9.20664 3.80004 9.20661C3.80004 9.20658 3.80004 9.20656 3.80004 9.20653C3.80004 9.2065 3.80004 9.20647 3.80004 9.20645C3.80004 9.20642 3.80004 9.20639 3.80004 9.20636C3.80004 9.20634 3.80004 9.20631 3.80004 9.20628C3.80004 9.20626 3.80004 9.20623 3.80004 9.2062C3.80004 9.20618 3.80004 9.20615 3.80004 9.20612C3.80004 9.2061 3.80004 9.20607 3.80004 9.20604C3.80004 9.20602 3.80004 9.20599 3.80004 9.20596C3.80004 9.20594 3.80004 9.20591 3.80004 9.20589C3.80004 9.20586 3.80004 9.20584 3.80004 9.20581C3.80004 9.20578 3.80004 9.20576 3.80004 9.20573C3.80004 9.20571 3.80004 9.20568 3.80004 9.20566C3.80004 9.20563 3.80004 9.20561 3.80004 9.20558C3.80004 9.20556 3.80004 9.20553 3.80004 9.20551C3.80004 9.20548 3.80004 9.20546 3.80004 9.20543C3.80004 9.20541 3.80004 9.20539 3.80004 9.20536C3.80004 9.20534 3.80004 9.20531 3.80004 9.20529C3.80004 9.20526 3.80004 9.20524 3.80004 9.20522C3.80004 9.20519 3.80004 9.20517 3.80004 9.20515C3.80004 9.20512 3.80004 9.2051 3.80004 9.20508C3.80004 9.20505 3.80004 9.20503 3.80004 9.20501C3.80004 9.20498 3.80004 9.20496 3.80004 9.20494C3.80004 9.20491 3.80004 9.20489 3.80004 9.20487C3.80004 9.20484 3.80004 9.20482 3.80004 9.2048C3.80004 9.20478 3.80004 9.20475 3.80004 9.20473C3.80004 9.20471 3.80004 9.20469 3.80004 9.20467C3.80004 9.20464 3.80004 9.20462 3.80004 9.2046C3.80004 9.20458 3.80004 9.20456 3.80004 9.20453C3.80004 9.20451 3.80004 9.20449 3.80004 9.20447C3.80004 9.20445 3.80004 9.20443 3.80004 9.20441C3.80004 9.20438 3.80004 9.20436 3.80004 9.20434C3.80004 9.20432 3.80004 9.2043 3.80004 9.20428C3.80004 9.20426 3.80004 9.20424 3.80004 9.20422C3.80004 9.2042 3.80004 9.20418 3.80004 9.20415C3.80004 9.20413 3.80004 9.20411 3.80004 9.20409C3.80004 9.20407 3.80004 9.20405 3.80004 9.20403C3.80004 9.20401 3.80004 9.20399 3.80004 9.20397C3.80004 9.20395 3.80004 9.20393 3.80004 9.20391C3.80004 9.20389 3.80004 9.20387 3.80004 9.20386C3.80004 9.20384 3.80004 9.20382 3.80004 9.2038C3.80004 9.20378 3.80004 9.20376 3.80004 9.20374C3.80004 9.20372 3.80004 9.2037 3.80004 9.20368C3.80004 9.20366 3.80004 9.20365 3.80004 9.20363C3.80004 9.20361 3.80004 9.20359 3.80004 9.20357C3.80004 9.20355 3.80004 9.20353 3.80004 9.20352C3.80004 9.2035 3.80004 9.20348 3.80004 9.20346C3.80004 9.20344 3.80004 9.20342 3.80004 9.20341C3.80004 9.20339 3.80004 9.20337 3.80004 9.20335C3.80004 9.20334 3.80004 9.20332 3.80004 9.2033C3.80004 9.20328 3.80004 9.20327 3.80004 9.20325C3.80004 9.20323 3.80004 9.20321 3.80004 9.2032C3.80004 9.20318 3.80004 9.20316 3.80004 9.20314C3.80004 9.20313 3.80004 9.20311 3.80004 9.20309C3.80004 9.20308 3.80004 9.20306 3.80004 9.20304C3.80004 9.20303 3.80004 9.20301 3.80004 9.20299C3.80004 9.20298 3.80004 9.20296 3.80004 9.20295C3.80004 9.20293 3.80004 9.20291 3.80004 9.2029C3.80004 9.20288 3.80004 9.20286 3.80004 9.20285C3.80004 9.20283 3.80004 9.20282 3.80004 9.2028C3.80004 9.20279 3.80004 9.20277 3.80004 9.20275C3.80004 9.20274 3.80004 9.20272 3.80004 9.20271C3.80004 9.20269 3.80004 9.20268 3.80004 9.20266C3.80004 9.20265 3.80004 9.20263 3.80004 9.20262C3.80004 9.2026 3.80004 9.20259 3.80004 9.20257C3.80004 9.20256 3.80004 9.20254 3.80004 9.20253C3.80004 9.20251 3.80004 9.2025 3.80004 9.20248C3.80004 9.20247 3.80004 9.20245 3.80004 9.20244C3.80004 9.20243 3.80004 9.20241 3.80004 9.2024C3.80004 9.20238 3.80004 9.20237 3.80004 9.20235C3.80004 9.20234 3.80004 9.20233 3.80004 9.20231C3.80004 9.2023 3.80004 9.20229 3.80004 9.20227C3.80004 9.20226 3.80004 9.20224 3.80004 9.20223C3.80004 9.20222 3.80004 9.2022 3.80004 9.20219C3.80004 9.20218 3.80004 9.20216 3.80004 9.20215C3.80004 9.20214 3.80004 9.20212 3.80004 9.20211C3.80004 9.2021 3.80004 9.20209 3.80004 9.20207C3.80004 9.20206 3.80004 9.20205 3.80004 9.20203C3.80004 9.20202 3.80004 9.20201 3.80004 9.202C3.80004 9.20198 3.80004 9.20197 3.80004 9.20196C3.80004 9.20195 3.80004 9.20193 3.80004 9.20192C3.80004 9.20191 3.80004 9.2019 3.80004 9.20189C3.80004 9.20187 3.80004 9.20186 3.80004 9.20185C3.80004 9.20184 3.80004 9.20183 3.80004 9.20181C3.80004 9.2018 3.80004 9.20179 3.80004 9.20178C3.80004 9.20177 3.80004 9.20176 3.80004 9.20174C3.80004 9.20173 3.80004 9.20172 3.80004 9.20171C3.80004 9.2017 3.80004 9.20169 3.80004 9.20168C3.80004 9.20166 3.80004 9.20165 3.80004 9.20164C3.80004 9.20163 3.80004 9.20162 3.80004 9.20161C3.80004 9.2016 3.80004 9.20159 3.80004 9.20158C3.80004 9.20157 3.80004 9.20156 3.80004 9.20155C3.80004 9.20153 3.80004 9.20152 3.80004 9.20151C3.80004 9.2015 3.80004 9.20149 3.80004 9.20148C3.80004 9.20147 3.80004 9.20146 3.80004 9.20145C3.80004 9.20144 3.80004 9.20143 3.80004 9.20142C3.80004 9.20141 3.80004 9.2014 3.80004 9.20139C3.80004 9.20138 3.80004 9.20137 3.80004 9.20136C3.80004 9.20135 3.80004 9.20134 3.80004 9.20133C3.80004 9.20132 3.80004 9.20131 3.80004 9.2013C3.80004 9.2013 3.80004 9.20129 3.80004 9.20128C3.80004 9.20127 3.80004 9.20126 3.80004 9.20125C3.80004 9.20124 3.80004 9.20123 3.80004 9.20122C3.80004 9.20121 3.80004 9.2012 3.80004 9.20119C3.80004 9.20119 3.80004 9.20118 3.80004 9.20117C3.80004 9.20116 3.80004 9.20115 3.80004 9.20114C3.80004 9.20113 3.80004 9.20112 3.80004 9.20112C3.80004 9.20111 3.80004 9.2011 3.80004 9.20109C3.80004 9.20108 3.80004 9.20107 3.80004 9.20107C3.80004 9.20106 3.80004 9.20105 3.80004 9.20104C3.80004 9.20103 3.80004 9.20103 3.80004 9.20102C3.80004 9.20101 3.80004 9.201 3.80004 9.20099C3.80004 9.20099 3.80004 9.20098 3.80004 9.20097C3.80004 9.20096 3.80004 9.20095 3.80004 9.20095C3.80004 9.20094 3.80004 9.20093 3.80004 9.20092C3.80004 9.20092 3.80004 9.20091 3.80004 9.2009C3.80004 9.20089 3.80004 9.20089 3.80004 9.20088C3.80004 9.20087 3.80004 9.20087 3.80004 9.20086C3.80004 9.20085 3.80004 9.20084 3.80004 9.20084C3.80004 9.20083 3.80004 9.20082 3.80004 9.20082C3.80004 9.20081 3.80004 9.2008 3.80004 9.2008C3.80004 9.20079 3.80004 9.20078 3.80004 9.20078C3.80004 9.20077 3.80004 9.20076 3.80004 9.20076C3.80004 9.20075 3.80004 9.20074 3.80004 9.20074C3.80004 9.20073 3.80004 9.20072 3.80004 9.20072C3.80004 9.20071 3.80004 9.2007 3.80004 9.2007C3.80004 9.20069 3.80004 9.20069 3.80004 9.20068C3.80004 9.20067 3.80004 9.20067 3.80004 9.20066C3.80004 9.20065 3.80004 9.20065 3.80004 9.20064C3.80004 9.20064 3.80004 9.20063 3.80004 9.20063C3.80004 9.20062 3.80004 9.20061 3.80004 9.20061C3.80004 9.2006 3.80004 9.2006 3.80004 9.20059C3.80004 9.20059 3.80004 9.20058 3.80004 9.20057C3.80004 9.20057 3.80004 9.20056 3.80004 9.20056C3.80004 9.20055 3.80004 9.20055 3.80004 9.20054C3.80004 9.20054 3.80004 9.20053 3.80004 9.20053C3.80004 9.20052 3.80004 9.20052 3.80004 9.20051C3.80004 9.20051 3.80004 9.2005 3.80004 9.2005C3.80004 9.20049 3.80004 9.20049 3.80004 9.20048C3.80004 9.20048 3.80004 9.20047 3.80004 9.20047C3.80004 9.20046 3.80004 9.20046 3.80004 9.20045C3.80004 9.20045 3.80004 9.20044 3.80004 9.20044C3.80004 9.20043 3.80004 9.20043 3.80004 9.20043C3.80004 9.20042 3.80004 9.20042 3.80004 9.20041C3.80004 9.20041 3.80004 9.2004 3.80004 9.2004C3.80004 9.2004 3.80004 9.20039 3.80004 9.20039C3.80004 9.20038 3.80004 9.20038 3.80004 9.20037C3.80004 9.20037 3.80004 9.20037 3.80004 9.20036C3.80004 9.20036 3.80004 9.20035 3.80004 9.20035C3.80004 9.20035 3.80004 9.20034 3.80004 9.20034C3.80004 9.20033 3.80004 9.20033 3.80004 9.20033C3.80004 9.20032 3.80004 9.20032 3.80004 9.20032C3.80004 9.20031 3.80004 9.20031 3.80004 9.2003C3.80004 9.2003 3.80004 9.2003 3.80004 9.20029C3.80004 9.20029 3.80004 9.20029 3.80004 9.20028C3.80004 9.20028 3.80004 9.20028 3.80004 9.20027C3.80004 9.20027 3.80004 9.20027 3.80004 9.20026C3.80004 9.20026 3.80004 9.20026 3.80004 9.20025C3.80004 9.20025 3.80004 9.20025 3.80004 9.20024C3.80004 9.20024 3.80004 9.20024 3.80004 9.20024C3.80004 9.20023 3.80004 9.20023 3.80004 9.20023C3.80004 9.20022 3.80004 9.20022 3.80004 9.20022C3.80004 9.20021 3.80004 9.20021 3.80004 9.20021C3.80004 9.20021 3.80004 9.2002 3.80004 9.2002C3.80004 9.2002 3.80004 9.2002 3.80004 9.20019C3.80004 9.20019 3.80004 9.20019 3.80004 9.20019C3.80004 9.20018 3.80004 9.20018 3.80004 9.20018C3.80004 9.20017 3.80004 9.20017 3.80004 9.20017C3.80004 9.20017 3.80004 9.20017 3.80004 9.20016C3.80004 9.20016 3.80004 9.20016 3.80004 9.20016C3.80004 9.20015 3.80004 9.20015 3.80004 9.20015C3.80004 9.20015 3.80004 9.20014 3.80004 9.20014C3.80004 9.20014 3.80004 9.20014 3.80004 9.20014C3.80004 9.20013 3.80004 9.20013 3.80004 9.20013C3.80004 9.20013 3.80004 9.20013 3.80004 9.20012C3.80004 9.20012 3.80004 9.20012 3.80004 9.20012C3.80004 9.20012 3.80004 9.20011 3.80004 9.20011C3.80004 9.20011 3.80004 9.20011 3.80004 9.20011C3.80004 9.20011 3.80004 9.2001 3.80004 9.2001C3.80004 9.2001 3.80004 9.2001 3.80004 9.2001C3.80004 9.2001 3.80004 9.20009 3.80004 9.20009C3.80004 9.20009 3.80004 9.20009 3.80004 9.20009C3.80004 9.20009 3.80004 9.20008 3.80004 9.20008C3.80004 9.20008 3.80004 9.20008 3.80004 9.20008C3.80004 9.20008 3.80004 9.20008 3.80004 9.20007C3.80004 9.20007 3.80004 9.20007 3.80004 9.20007C3.80004 9.20007 3.80004 9.20007 3.80004 9.20007C3.80004 9.20006 3.80004 9.20006 3.80004 9.20006C3.80004 9.20006 3.80004 9.20006 3.80004 9.20006C3.80004 9.20006 3.80004 9.20006 3.80004 9.20005C3.80004 9.20005 3.80004 9.20005 3.80004 9.20005C3.80004 9.20005 3.80004 9.20005 3.80004 9.20005C3.80004 9.20005 3.80004 9.20005 3.80004 9.20005C3.80004 9.20004 3.80004 9.20004 3.80004 9.20004C3.80004 9.20004 3.80004 9.20004 3.80004 9.20004C3.80004 9.20004 3.80004 9.20004 3.80004 9.20004C3.80004 9.20004 3.80004 9.20003 3.80004 9.20003C3.80004 9.20003 3.80004 9.20003 3.80004 9.20003C3.80004 9.20003 3.80004 9.20003 3.80004 9.20003C3.80004 9.20003 3.80004 9.20003 3.80004 9.20003C3.80004 9.20003 3.80004 9.20003 3.80004 9.20003C3.80004 9.20002 3.80004 9.20002 3.80004 9.20002C3.80004 9.20002 3.80004 9.20002 3.80004 9.20002C3.80004 9.20002 3.80004 9.20002 3.80004 9.20002C3.80004 9.20002 3.80004 9.20002 3.80004 9.20002C3.80004 9.20002 3.80004 9.20002 3.80004 9.20002C3.80004 9.20002 3.80004 9.20002 3.80004 9.20001C3.80004 9.20001 3.80004 9.20001 3.80004 9.20001C3.80004 9.20001 3.80004 9.20001 3.80004 9.20001C3.80004 9.20001 3.80004 9.20001 3.80004 9.20001C3.80004 9.20001 3.80004 9.20001 3.80004 9.20001C3.80004 9.20001 3.80004 9.20001 3.80004 9.20001C3.80004 9.20001 3.80004 9.20001 3.80004 9.20001C3.80004 9.20001 3.80004 9.20001 3.80004 9.20001C3.80004 9.20001 3.80004 9.20001 3.80004 9.20001V9.20001C3.80004 9.2 3.80004 9.2 3.80004 9.2C3.80004 9.2 3.80004 9.2 3.80004 9.2V9.2V9.2V9.2V9.2C3.80004 9.2 3.80004 9.2 3.80004 9.2C3.80004 9.2 3.80004 9.2 3.80004 9.2C3.80004 9.2 3.80004 9.2 3.80004 9.2C3.80004 9.2 3.80004 9.2 3.80004 9.2H2.60004ZM1.75151 10.1152C1.82278 10.1865 2.69576 10.9512 3.65204 11.7869C4.64397 12.6538 5.81287 13.6724 6.54903 14.3082L8.11772 12.4918C7.38721 11.8609 6.22277 10.8462 5.23138 9.97977C4.20432 9.08218 3.44397 8.41354 3.44857 8.41814L1.75151 10.1152ZM6.56515 14.3219C7.41017 15.026 8.65658 15.026 9.5016 14.3219L7.96515 12.4781C7.99359 12.4544 8.01975 12.45 8.03337 12.45C8.047 12.45 8.07316 12.4544 8.1016 12.4781L6.56515 14.3219ZM9.51772 14.3082C10.257 13.6697 11.414 12.6468 12.3935 11.7836C12.8854 11.35 13.3326 10.9567 13.6645 10.668C13.8311 10.5232 13.9646 10.4082 14.0587 10.3289C14.1066 10.2885 14.1384 10.2623 14.1568 10.2476C14.1666 10.2397 14.1658 10.2407 14.158 10.2464C14.1542 10.2493 14.1423 10.2579 14.1252 10.2694C14.1155 10.2758 14.0691 10.3071 14.0034 10.34L12.9301 8.19335C12.8205 8.24813 12.7354 8.31345 12.7332 8.31515C12.7055 8.33551 12.6794 8.35609 12.6585 8.37273C12.6157 8.40697 12.5651 8.44896 12.5117 8.49405C12.4032 8.58551 12.2586 8.71013 12.0897 8.85697C11.7508 9.15164 11.298 9.54999 10.8066 9.98308C9.8194 10.8532 8.67638 11.8636 7.94903 12.4918L9.51772 14.3082ZM13.4667 9.26667H14.6667C14.6667 9.26667 14.6667 9.26667 14.6667 9.26667V9.26667C14.6667 9.26666 14.6667 9.26666 14.6667 9.26666V9.26666C14.6667 9.26666 14.6667 9.26666 14.6667 9.26666C14.6667 9.26666 14.6667 9.26666 14.6667 9.26666C14.6667 9.26666 14.6667 9.26666 14.6667 9.26666C14.6667 9.26666 14.6667 9.26666 14.6667 9.26666V9.26666C14.6667 9.26666 14.6667 9.26666 14.6667 9.26666V9.26666C14.6667 9.26666 14.6667 9.26666 14.6667 9.26666C14.6667 9.26666 14.6667 9.26666 14.6667 9.26666C14.6667 9.26666 14.6667 9.26666 14.6667 9.26666C14.6667 9.26666 14.6667 9.26666 14.6667 9.26666C14.6667 9.26666 14.6667 9.26666 14.6667 9.26666C14.6667 9.26666 14.6667 9.26665 14.6667 9.26665C14.6667 9.26665 14.6667 9.26665 14.6667 9.26665C14.6667 9.26665 14.6667 9.26665 14.6667 9.26665C14.6667 9.26665 14.6667 9.26665 14.6667 9.26665C14.6667 9.26665 14.6667 9.26665 14.6667 9.26665C14.6667 9.26665 14.6667 9.26665 14.6667 9.26665C14.6667 9.26665 14.6667 9.26665 14.6667 9.26665C14.6667 9.26664 14.6667 9.26664 14.6667 9.26664C14.6667 9.26664 14.6667 9.26664 14.6667 9.26664C14.6667 9.26664 14.6667 9.26664 14.6667 9.26664C14.6667 9.26664 14.6667 9.26664 14.6667 9.26664C14.6667 9.26664 14.6667 9.26664 14.6667 9.26663C14.6667 9.26663 14.6667 9.26663 14.6667 9.26663C14.6667 9.26663 14.6667 9.26663 14.6667 9.26663C14.6667 9.26663 14.6667 9.26663 14.6667 9.26663C14.6667 9.26663 14.6667 9.26663 14.6667 9.26662C14.6667 9.26662 14.6667 9.26662 14.6667 9.26662C14.6667 9.26662 14.6667 9.26662 14.6667 9.26662C14.6667 9.26662 14.6667 9.26662 14.6667 9.26661C14.6667 9.26661 14.6667 9.26661 14.6667 9.26661C14.6667 9.26661 14.6667 9.26661 14.6667 9.26661C14.6667 9.26661 14.6667 9.26661 14.6667 9.2666C14.6667 9.2666 14.6667 9.2666 14.6667 9.2666C14.6667 9.2666 14.6667 9.2666 14.6667 9.2666C14.6667 9.2666 14.6667 9.26659 14.6667 9.26659C14.6667 9.26659 14.6667 9.26659 14.6667 9.26659C14.6667 9.26659 14.6667 9.26659 14.6667 9.26658C14.6667 9.26658 14.6667 9.26658 14.6667 9.26658C14.6667 9.26658 14.6667 9.26658 14.6667 9.26657C14.6667 9.26657 14.6667 9.26657 14.6667 9.26657C14.6667 9.26657 14.6667 9.26657 14.6667 9.26656C14.6667 9.26656 14.6667 9.26656 14.6667 9.26656C14.6667 9.26656 14.6667 9.26656 14.6667 9.26655C14.6667 9.26655 14.6667 9.26655 14.6667 9.26655C14.6667 9.26655 14.6667 9.26654 14.6667 9.26654C14.6667 9.26654 14.6667 9.26654 14.6667 9.26654C14.6667 9.26653 14.6667 9.26653 14.6667 9.26653C14.6667 9.26653 14.6667 9.26653 14.6667 9.26652C14.6667 9.26652 14.6667 9.26652 14.6667 9.26652C14.6667 9.26651 14.6667 9.26651 14.6667 9.26651C14.6667 9.26651 14.6667 9.26651 14.6667 9.2665C14.6667 9.2665 14.6667 9.2665 14.6667 9.2665C14.6667 9.26649 14.6667 9.26649 14.6667 9.26649C14.6667 9.26649 14.6667 9.26648 14.6667 9.26648C14.6667 9.26648 14.6667 9.26648 14.6667 9.26647C14.6667 9.26647 14.6667 9.26647 14.6667 9.26647C14.6667 9.26646 14.6667 9.26646 14.6667 9.26646C14.6667 9.26645 14.6667 9.26645 14.6667 9.26645C14.6667 9.26645 14.6667 9.26644 14.6667 9.26644C14.6667 9.26644 14.6667 9.26643 14.6667 9.26643C14.6667 9.26643 14.6667 9.26642 14.6667 9.26642C14.6667 9.26642 14.6667 9.26642 14.6667 9.26641C14.6667 9.26641 14.6667 9.26641 14.6667 9.2664C14.6667 9.2664 14.6667 9.2664 14.6667 9.26639C14.6667 9.26639 14.6667 9.26639 14.6667 9.26638C14.6667 9.26638 14.6667 9.26638 14.6667 9.26637C14.6667 9.26637 14.6667 9.26637 14.6667 9.26636C14.6667 9.26636 14.6667 9.26635 14.6667 9.26635C14.6667 9.26635 14.6667 9.26634 14.6667 9.26634C14.6667 9.26634 14.6667 9.26633 14.6667 9.26633C14.6667 9.26632 14.6667 9.26632 14.6667 9.26632C14.6667 9.26631 14.6667 9.26631 14.6667 9.2663C14.6667 9.2663 14.6667 9.2663 14.6667 9.26629C14.6667 9.26629 14.6667 9.26628 14.6667 9.26628C14.6667 9.26628 14.6667 9.26627 14.6667 9.26627C14.6667 9.26626 14.6667 9.26626 14.6667 9.26625C14.6667 9.26625 14.6667 9.26625 14.6667 9.26624C14.6667 9.26624 14.6667 9.26623 14.6667 9.26623C14.6667 9.26622 14.6667 9.26622 14.6667 9.26621C14.6667 9.26621 14.6667 9.2662 14.6667 9.2662C14.6667 9.26619 14.6667 9.26619 14.6667 9.26618C14.6667 9.26618 14.6667 9.26617 14.6667 9.26617C14.6667 9.26616 14.6667 9.26616 14.6667 9.26615C14.6667 9.26615 14.6667 9.26614 14.6667 9.26614C14.6667 9.26613 14.6667 9.26613 14.6667 9.26612C14.6667 9.26612 14.6667 9.26611 14.6667 9.26611C14.6667 9.2661 14.6667 9.2661 14.6667 9.26609C14.6667 9.26609 14.6667 9.26608 14.6667 9.26608C14.6667 9.26607 14.6667 9.26606 14.6667 9.26606C14.6667 9.26605 14.6667 9.26605 14.6667 9.26604C14.6667 9.26604 14.6667 9.26603 14.6667 9.26602C14.6667 9.26602 14.6667 9.26601 14.6667 9.26601C14.6667 9.266 14.6667 9.26599 14.6667 9.26599C14.6667 9.26598 14.6667 9.26597 14.6667 9.26597C14.6667 9.26596 14.6667 9.26596 14.6667 9.26595C14.6667 9.26594 14.6667 9.26594 14.6667 9.26593C14.6667 9.26592 14.6667 9.26592 14.6667 9.26591C14.6667 9.2659 14.6667 9.2659 14.6667 9.26589C14.6667 9.26588 14.6667 9.26588 14.6667 9.26587C14.6667 9.26586 14.6667 9.26586 14.6667 9.26585C14.6667 9.26584 14.6667 9.26584 14.6667 9.26583C14.6667 9.26582 14.6667 9.26582 14.6667 9.26581C14.6667 9.2658 14.6667 9.26579 14.6667 9.26579C14.6667 9.26578 14.6667 9.26577 14.6667 9.26576C14.6667 9.26576 14.6667 9.26575 14.6667 9.26574C14.6667 9.26573 14.6667 9.26573 14.6667 9.26572C14.6667 9.26571 14.6667 9.2657 14.6667 9.2657C14.6667 9.26569 14.6667 9.26568 14.6667 9.26567C14.6667 9.26567 14.6667 9.26566 14.6667 9.26565C14.6667 9.26564 14.6667 9.26563 14.6667 9.26562C14.6667 9.26562 14.6667 9.26561 14.6667 9.2656C14.6667 9.26559 14.6667 9.26558 14.6667 9.26558C14.6667 9.26557 14.6667 9.26556 14.6667 9.26555C14.6667 9.26554 14.6667 9.26553 14.6667 9.26552C14.6667 9.26552 14.6667 9.26551 14.6667 9.2655C14.6667 9.26549 14.6667 9.26548 14.6667 9.26547C14.6667 9.26546 14.6667 9.26545 14.6667 9.26544C14.6667 9.26544 14.6667 9.26543 14.6667 9.26542C14.6667 9.26541 14.6667 9.2654 14.6667 9.26539C14.6667 9.26538 14.6667 9.26537 14.6667 9.26536C14.6667 9.26535 14.6667 9.26534 14.6667 9.26533C14.6667 9.26532 14.6667 9.26531 14.6667 9.2653C14.6667 9.26529 14.6667 9.26528 14.6667 9.26527C14.6667 9.26526 14.6667 9.26525 14.6667 9.26524C14.6667 9.26523 14.6667 9.26522 14.6667 9.26521C14.6667 9.2652 14.6667 9.26519 14.6667 9.26518C14.6667 9.26517 14.6667 9.26516 14.6667 9.26515C14.6667 9.26514 14.6667 9.26513 14.6667 9.26512C14.6667 9.26511 14.6667 9.2651 14.6667 9.26509C14.6667 9.26508 14.6667 9.26507 14.6667 9.26506C14.6667 9.26505 14.6667 9.26503 14.6667 9.26502C14.6667 9.26501 14.6667 9.265 14.6667 9.26499C14.6667 9.26498 14.6667 9.26497 14.6667 9.26496C14.6667 9.26495 14.6667 9.26493 14.6667 9.26492C14.6667 9.26491 14.6667 9.2649 14.6667 9.26489C14.6667 9.26488 14.6667 9.26486 14.6667 9.26485C14.6667 9.26484 14.6667 9.26483 14.6667 9.26482C14.6667 9.2648 14.6667 9.26479 14.6667 9.26478C14.6667 9.26477 14.6667 9.26476 14.6667 9.26474C14.6667 9.26473 14.6667 9.26472 14.6667 9.26471C14.6667 9.2647 14.6667 9.26468 14.6667 9.26467C14.6667 9.26466 14.6667 9.26464 14.6667 9.26463C14.6667 9.26462 14.6667 9.26461 14.6667 9.26459C14.6667 9.26458 14.6667 9.26457 14.6667 9.26455C14.6667 9.26454 14.6667 9.26453 14.6667 9.26452C14.6667 9.2645 14.6667 9.26449 14.6667 9.26448C14.6667 9.26446 14.6667 9.26445 14.6667 9.26444C14.6667 9.26442 14.6667 9.26441 14.6667 9.26439C14.6667 9.26438 14.6667 9.26437 14.6667 9.26435C14.6667 9.26434 14.6667 9.26433 14.6667 9.26431C14.6667 9.2643 14.6667 9.26428 14.6667 9.26427C14.6667 9.26426 14.6667 9.26424 14.6667 9.26423C14.6667 9.26421 14.6667 9.2642 14.6667 9.26418C14.6667 9.26417 14.6667 9.26415 14.6667 9.26414C14.6667 9.26412 14.6667 9.26411 14.6667 9.26409C14.6667 9.26408 14.6667 9.26406 14.6667 9.26405C14.6667 9.26403 14.6667 9.26402 14.6667 9.264C14.6667 9.26399 14.6667 9.26397 14.6667 9.26396C14.6667 9.26394 14.6667 9.26393 14.6667 9.26391C14.6667 9.2639 14.6667 9.26388 14.6667 9.26387C14.6667 9.26385 14.6667 9.26383 14.6667 9.26382C14.6667 9.2638 14.6667 9.26379 14.6667 9.26377C14.6667 9.26375 14.6667 9.26374 14.6667 9.26372C14.6667 9.2637 14.6667 9.26369 14.6667 9.26367C14.6667 9.26366 14.6667 9.26364 14.6667 9.26362C14.6667 9.26361 14.6667 9.26359 14.6667 9.26357C14.6667 9.26356 14.6667 9.26354 14.6667 9.26352C14.6667 9.2635 14.6667 9.26349 14.6667 9.26347C14.6667 9.26345 14.6667 9.26344 14.6667 9.26342C14.6667 9.2634 14.6667 9.26338 14.6667 9.26337C14.6667 9.26335 14.6667 9.26333 14.6667 9.26331C14.6667 9.2633 14.6667 9.26328 14.6667 9.26326C14.6667 9.26324 14.6667 9.26322 14.6667 9.26321C14.6667 9.26319 14.6667 9.26317 14.6667 9.26315C14.6667 9.26313 14.6667 9.26311 14.6667 9.2631C14.6667 9.26308 14.6667 9.26306 14.6667 9.26304C14.6667 9.26302 14.6667 9.263 14.6667 9.26298C14.6667 9.26296 14.6667 9.26295 14.6667 9.26293C14.6667 9.26291 14.6667 9.26289 14.6667 9.26287C14.6667 9.26285 14.6667 9.26283 14.6667 9.26281C14.6667 9.26279 14.6667 9.26277 14.6667 9.26275C14.6667 9.26273 14.6667 9.26271 14.6667 9.26269C14.6667 9.26267 14.6667 9.26265 14.6667 9.26263C14.6667 9.26261 14.6667 9.26259 14.6667 9.26257C14.6667 9.26255 14.6667 9.26253 14.6667 9.26251C14.6667 9.26249 14.6667 9.26247 14.6667 9.26245C14.6667 9.26243 14.6667 9.26241 14.6667 9.26239C14.6667 9.26237 14.6667 9.26235 14.6667 9.26232C14.6667 9.2623 14.6667 9.26228 14.6667 9.26226C14.6667 9.26224 14.6667 9.26222 14.6667 9.2622C14.6667 9.26218 14.6667 9.26215 14.6667 9.26213C14.6667 9.26211 14.6667 9.26209 14.6667 9.26207C14.6667 9.26204 14.6667 9.26202 14.6667 9.262C14.6667 9.26198 14.6667 9.26196 14.6667 9.26193C14.6667 9.26191 14.6667 9.26189 14.6667 9.26187C14.6667 9.26184 14.6667 9.26182 14.6667 9.2618C14.6667 9.26178 14.6667 9.26175 14.6667 9.26173C14.6667 9.26171 14.6667 9.26168 14.6667 9.26166C14.6667 9.26164 14.6667 9.26161 14.6667 9.26159C14.6667 9.26157 14.6667 9.26154 14.6667 9.26152C14.6667 9.2615 14.6667 9.26147 14.6667 9.26145C14.6667 9.26143 14.6667 9.2614 14.6667 9.26138C14.6667 9.26135 14.6667 9.26133 14.6667 9.26131C14.6667 9.26128 14.6667 9.26126 14.6667 9.26123C14.6667 9.26121 14.6667 9.26118 14.6667 9.26116C14.6667 9.26113 14.6667 9.26111 14.6667 9.26108C14.6667 9.26106 14.6667 9.26103 14.6667 9.26101C14.6667 9.26098 14.6667 9.26096 14.6667 9.26093C14.6667 9.26091 14.6667 9.26088 14.6667 9.26086C14.6667 9.26083 14.6667 9.26081 14.6667 9.26078C14.6667 9.26075 14.6667 9.26073 14.6667 9.2607C14.6667 9.26068 14.6667 9.26065 14.6667 9.26062C14.6667 9.2606 14.6667 9.26057 14.6667 9.26054C14.6667 9.26052 14.6667 9.26049 14.6667 9.26046C14.6667 9.26044 14.6667 9.26041 14.6667 9.26038C14.6667 9.26036 14.6667 9.26033 14.6667 9.2603C14.6667 9.26028 14.6667 9.26025 14.6667 9.26022C14.6667 9.26019 14.6667 9.26017 14.6667 9.26014C14.6667 9.26011 14.6667 9.26008 14.6667 9.26005C14.6667 9.26003 14.6667 9.26 14.6667 9.25997C14.6667 9.25994 14.6667 9.25991 14.6667 9.25989C14.6667 9.25986 14.6667 9.25983 14.6667 9.2598C14.6667 9.25977 14.6667 9.25974 14.6667 9.25971C14.6667 9.25969 14.6667 9.25966 14.6667 9.25963C14.6667 9.2596 14.6667 9.25957 14.6667 9.25954C14.6667 9.25951 14.6667 9.25948 14.6667 9.25945C14.6667 9.25942 14.6667 9.25939 14.6667 9.25936C14.6667 9.25933 14.6667 9.2593 14.6667 9.25927C14.6667 9.25924 14.6667 9.25921 14.6667 9.25918C14.6667 9.25915 14.6667 9.25912 14.6667 9.25909C14.6667 9.25906 14.6667 9.25903 14.6667 9.259C14.6667 9.25897 14.6667 9.25894 14.6667 9.25891C14.6667 9.25887 14.6667 9.25884 14.6667 9.25881C14.6667 9.25878 14.6667 9.25875 14.6667 9.25872C14.6667 9.25869 14.6667 9.25865 14.6667 9.25862C14.6667 9.25859 14.6667 9.25856 14.6667 9.25853C14.6667 9.25849 14.6667 9.25846 14.6667 9.25843C14.6667 9.2584 14.6667 9.25837 14.6667 9.25833C14.6667 9.2583 14.6667 9.25827 14.6667 9.25824C14.6667 9.2582 14.6667 9.25817 14.6667 9.25814C14.6667 9.2581 14.6667 9.25807 14.6667 9.25804C14.6667 9.258 14.6667 9.25797 14.6667 9.25794C14.6667 9.2579 14.6667 9.25787 14.6667 9.25784C14.6667 9.2578 14.6667 9.25777 14.6667 9.25773C14.6667 9.2577 14.6667 9.25767 14.6667 9.25763C14.6667 9.2576 14.6667 9.25756 14.6667 9.25753C14.6667 9.25749 14.6667 9.25746 14.6667 9.25742C14.6667 9.25739 14.6667 9.25735 14.6667 9.25732C14.6667 9.25728 14.6667 9.25725 14.6667 9.25721C14.6667 9.25718 14.6667 9.25714 14.6667 9.25711C14.6667 9.25707 14.6667 9.25703 14.6667 9.257C14.6667 9.25696 14.6667 9.25693 14.6667 9.25689C14.6667 9.25685 14.6667 9.25682 14.6667 9.25678C14.6667 9.25674 14.6667 9.25671 14.6667 9.25667C14.6667 9.25663 14.6667 9.2566 14.6667 9.25656C14.6667 9.25652 14.6667 9.25649 14.6667 9.25645C14.6667 9.25641 14.6667 9.25637 14.6667 9.25634C14.6667 9.2563 14.6667 9.25626 14.6667 9.25622C14.6667 9.25619 14.6667 9.25615 14.6667 9.25611C14.6667 9.25607 14.6667 9.25603 14.6667 9.25599C14.6667 9.25596 14.6667 9.25592 14.6667 9.25588C14.6667 9.25584 14.6667 9.2558 14.6667 9.25576C14.6667 9.25572 14.6667 9.25568 14.6667 9.25565C14.6667 9.25561 14.6667 9.25557 14.6667 9.25553C14.6667 9.25549 14.6667 9.25545 14.6667 9.25541C14.6667 9.25537 14.6667 9.25533 14.6667 9.25529C14.6667 9.25525 14.6667 9.25521 14.6667 9.25517C14.6667 9.25513 14.6667 9.25509 14.6667 9.25505C14.6667 9.25501 14.6667 9.25497 14.6667 9.25492C14.6667 9.25488 14.6667 9.25484 14.6667 9.2548C14.6667 9.25476 14.6667 9.25472 14.6667 9.25468C14.6667 9.25464 14.6667 9.25459 14.6667 9.25455C14.6667 9.25451 14.6667 9.25447 14.6667 9.25443C14.6667 9.25438 14.6667 9.25434 14.6667 9.2543C14.6667 9.25426 14.6667 9.25422 14.6667 9.25417C14.6667 9.25413 14.6667 9.25409 14.6667 9.25404C14.6667 9.254 14.6667 9.25396 14.6667 9.25391C14.6667 9.25387 14.6667 9.25383 14.6667 9.25378C14.6667 9.25374 14.6667 9.2537 14.6667 9.25365C14.6667 9.25361 14.6667 9.25357 14.6667 9.25352C14.6667 9.25348 14.6667 9.25343 14.6667 9.25339C14.6667 9.25335 14.6667 9.2533 14.6667 9.25326C14.6667 9.25321 14.6667 9.25317 14.6667 9.25312C14.6667 9.25308 14.6667 9.25303 14.6667 9.25299C14.6667 9.25294 14.6667 9.25289 14.6667 9.25285C14.6667 9.2528 14.6667 9.25276 14.6667 9.25271C14.6667 9.25267 14.6667 9.25262 14.6667 9.25257C14.6667 9.25253 14.6667 9.25248 14.6667 9.25243C14.6667 9.25239 14.6667 9.25234 14.6667 9.25229C14.6667 9.25225 14.6667 9.2522 14.6667 9.25215C14.6667 9.25211 14.6667 9.25206 14.6667 9.25201C14.6667 9.25196 14.6667 9.25192 14.6667 9.25187C14.6667 9.25182 14.6667 9.25177 14.6667 9.25173C14.6667 9.25168 14.6667 9.25163 14.6667 9.25158C14.6667 9.25153 14.6667 9.25148 14.6667 9.25144C14.6667 9.25139 14.6667 9.25134 14.6667 9.25129C14.6667 9.25124 14.6667 9.25119 14.6667 9.25114C14.6667 9.25109 14.6667 9.25104 14.6667 9.25099C14.6667 9.25094 14.6667 9.25089 14.6667 9.25084C14.6667 9.25079 14.6667 9.25074 14.6667 9.25069C14.6667 9.25064 14.6667 9.25059 14.6667 9.25054C14.6667 9.25049 14.6667 9.25044 14.6667 9.25039C14.6667 9.25034 14.6667 9.25029 14.6667 9.25024C14.6667 9.25019 14.6667 9.25013 14.6667 9.25008C14.6667 9.25003 14.6667 9.24998 14.6667 9.24993C14.6667 9.24988 14.6667 9.24982 14.6667 9.24977C14.6667 9.24972 14.6667 9.24967 14.6667 9.24962C14.6667 9.24956 14.6667 9.24951 14.6667 9.24946C14.6667 9.2494 14.6667 9.24935 14.6667 9.2493C14.6667 9.24925 14.6667 9.24919 14.6667 9.24914C14.6667 9.24909 14.6667 9.24903 14.6667 9.24898C14.6667 9.24892 14.6667 9.24887 14.6667 9.24882C14.6667 9.24876 14.6667 9.24871 14.6667 9.24865C14.6667 9.2486 14.6667 9.24854 14.6667 9.24849C14.6667 9.24844 14.6667 9.24838 14.6667 9.24833C14.6667 9.24827 14.6667 9.24821 14.6667 9.24816C14.6667 9.2481 14.6667 9.24805 14.6667 9.24799C14.6667 9.24794 14.6667 9.24788 14.6667 9.24783C14.6667 9.24777 14.6667 9.24771 14.6667 9.24766C14.6667 9.2476 14.6667 9.24754 14.6667 9.24749C14.6667 9.24743 14.6667 9.24737 14.6667 9.24732C14.6667 9.24726 14.6667 9.2472 14.6667 9.24714C14.6667 9.24709 14.6667 9.24703 14.6667 9.24697C14.6667 9.24691 14.6667 9.24686 14.6667 9.2468C14.6667 9.24674 14.6667 9.24668 14.6667 9.24662C14.6667 9.24656 14.6667 9.24651 14.6667 9.24645C14.6667 9.24639 14.6667 9.24633 14.6667 9.24627C14.6667 9.24621 14.6667 9.24615 14.6667 9.24609C14.6667 9.24603 14.6667 9.24597 14.6667 9.24591C14.6667 9.24585 14.6667 9.24579 14.6667 9.24573C14.6667 9.24567 14.6667 9.24561 14.6667 9.24555C14.6667 9.24549 14.6667 9.24543 14.6667 9.24537C14.6667 9.24531 14.6667 9.24525 14.6667 9.24519C14.6667 9.24513 14.6667 9.24506 14.6667 9.245C14.6667 9.24494 14.6667 9.24488 14.6667 9.24482C14.6667 9.24476 14.6667 9.24469 14.6667 9.24463C14.6667 9.24457 14.6667 9.24451 14.6667 9.24444C14.6667 9.24438 14.6667 9.24432 14.6667 9.24426C14.6667 9.24419 14.6667 9.24413 14.6667 9.24407C14.6667 9.244 14.6667 9.24394 14.6667 9.24388C14.6667 9.24381 14.6667 9.24375 14.6667 9.24368C14.6667 9.24362 14.6667 9.24356 14.6667 9.24349C14.6667 9.24343 14.6667 9.24336 14.6667 9.2433C14.6667 9.24323 14.6667 9.24317 14.6667 9.2431C14.6667 9.24304 14.6667 9.24297 14.6667 9.24291C14.6667 9.24284 14.6667 9.24278 14.6667 9.24271C14.6667 9.24265 14.6667 9.24258 14.6667 9.24251C14.6667 9.24245 14.6667 9.24238 14.6667 9.24231C14.6667 9.24225 14.6667 9.24218 14.6667 9.24211C14.6667 9.24205 14.6667 9.24198 14.6667 9.24191C14.6667 9.24185 14.6667 9.24178 14.6667 9.24171C14.6667 9.24164 14.6667 9.24157 14.6667 9.24151C14.6667 9.24144 14.6667 9.24137 14.6667 9.2413C14.6667 9.24123 14.6667 9.24117 14.6667 9.2411C14.6667 9.24103 14.6667 9.24096 14.6667 9.24089C14.6667 9.24082 14.6667 9.24075 14.6667 9.24068C14.6667 9.24061 14.6667 9.24054 14.6667 9.24047C14.6667 9.2404 14.6667 9.24033 14.6667 9.24026C14.6667 9.24019 14.6667 9.24012 14.6667 9.24005C14.6667 9.23998 14.6667 9.23991 14.6667 9.23984C14.6667 9.23977 14.6667 9.2397 14.6667 9.23963C14.6667 9.23955 14.6667 9.23948 14.6667 9.23941C14.6667 9.23934 14.6667 9.23927 14.6667 9.2392C14.6667 9.23912 14.6667 9.23905 14.6667 9.23898C14.6667 9.23891 14.6667 9.23883 14.6667 9.23876C14.6667 9.23869 14.6667 9.23861 14.6667 9.23854C14.6667 9.23847 14.6667 9.23839 14.6667 9.23832C14.6667 9.23825 14.6667 9.23817 14.6667 9.2381C14.6667 9.23803 14.6667 9.23795 14.6667 9.23788C14.6667 9.2378 14.6667 9.23773 14.6667 9.23765C14.6667 9.23758 14.6667 9.2375 14.6667 9.23743C14.6667 9.23735 14.6667 9.23728 14.6667 9.2372C14.6667 9.23713 14.6667 9.23705 14.6667 9.23698C14.6667 9.2369 14.6667 9.23682 14.6667 9.23675C14.6667 9.23667 14.6667 9.23659 14.6667 9.23652C14.6667 9.23644 14.6667 9.23636 14.6667 9.23629C14.6667 9.23621 14.6667 9.23613 14.6667 9.23605C14.6667 9.23598 14.6667 9.2359 14.6667 9.23582C14.6667 9.23574 14.6667 9.23567 14.6667 9.23559C14.6667 9.23551 14.6667 9.23543 14.6667 9.23535C14.6667 9.23527 14.6667 9.23519 14.6667 9.23512C14.6667 9.23504 14.6667 9.23496 14.6667 9.23488C14.6667 9.2348 14.6667 9.23472 14.6667 9.23464C14.6667 9.23456 14.6667 9.23448 14.6667 9.2344C14.6667 9.23432 14.6667 9.23424 14.6667 9.23416C14.6667 9.23408 14.6667 9.23399 14.6667 9.23391C14.6667 9.23383 14.6667 9.23375 14.6667 9.23367C14.6667 9.23359 14.6667 9.23351 14.6667 9.23343C14.6667 9.23334 14.6667 9.23326 14.6667 9.23318C14.6667 9.2331 14.6667 9.23301 14.6667 9.23293C14.6667 9.23285 14.6667 9.23277 14.6667 9.23268C14.6667 9.2326 14.6667 9.23252 14.6667 9.23243C14.6667 9.23235 14.6667 9.23227 14.6667 9.23218C14.6667 9.2321 14.6667 9.23201 14.6667 9.23193C14.6667 9.23185 14.6667 9.23176 14.6667 9.23168C14.6667 9.23159 14.6667 9.23151 14.6667 9.23142C14.6667 9.23134 14.6667 9.23125 14.6667 9.23117C14.6667 9.23108 14.6667 9.23099 14.6667 9.23091C14.6667 9.23082 14.6667 9.23074 14.6667 9.23065C14.6667 9.23056 14.6667 9.23048 14.6667 9.23039C14.6667 9.2303 14.6667 9.23022 14.6667 9.23013C14.6667 9.23004 14.6667 9.22995 14.6667 9.22987C14.6667 9.22978 14.6667 9.22969 14.6667 9.2296C14.6667 9.22952 14.6667 9.22943 14.6667 9.22934C14.6667 9.22925 14.6667 9.22916 14.6667 9.22907C14.6667 9.22898 14.6667 9.22889 14.6667 9.22881C14.6667 9.22872 14.6667 9.22863 14.6667 9.22854C14.6667 9.22845 14.6667 9.22836 14.6667 9.22827C14.6667 9.22818 14.6667 9.22809 14.6667 9.228C14.6667 9.22791 14.6667 9.22781 14.6667 9.22772C14.6667 9.22763 14.6667 9.22754 14.6667 9.22745C14.6667 9.22736 14.6667 9.22727 14.6667 9.22717C14.6667 9.22708 14.6667 9.22699 14.6667 9.2269C14.6667 9.22681 14.6667 9.22671 14.6667 9.22662C14.6667 9.22653 14.6667 9.22644 14.6667 9.22634C14.6667 9.22625 14.6667 9.22616 14.6667 9.22606C14.6667 9.22597 14.6667 9.22588 14.6667 9.22578C14.6667 9.22569 14.6667 9.22559 14.6667 9.2255C14.6667 9.2254 14.6667 9.22531 14.6667 9.22521C14.6667 9.22512 14.6667 9.22502 14.6667 9.22493C14.6667 9.22483 14.6667 9.22474 14.6667 9.22464C14.6667 9.22455 14.6667 9.22445 14.6667 9.22436C14.6667 9.22426 14.6667 9.22416 14.6667 9.22407C14.6667 9.22397 14.6667 9.22387 14.6667 9.22378C14.6667 9.22368 14.6667 9.22358 14.6667 9.22348C14.6667 9.22339 14.6667 9.22329 14.6667 9.22319C14.6667 9.22309 14.6667 9.22299 14.6667 9.2229C14.6667 9.2228 14.6667 9.2227 14.6667 9.2226C14.6667 9.2225 14.6667 9.2224 14.6667 9.2223C14.6667 9.2222 14.6667 9.2221 14.6667 9.222C14.6667 9.22191 14.6667 9.22181 14.6667 9.22171C14.6667 9.22161 14.6667 9.2215 14.6667 9.2214C14.6667 9.2213 14.6667 9.2212 14.6667 9.2211C14.6667 9.221 14.6667 9.2209 14.6667 9.2208C14.6667 9.2207 14.6667 9.22059 14.6667 9.22049C14.6667 9.22039 14.6667 9.22029 14.6667 9.22019C14.6667 9.22008 14.6667 9.21998 14.6667 9.21988C14.6667 9.21978 14.6667 9.21967 14.6667 9.21957C14.6667 9.21947 14.6667 9.21936 14.6667 9.21926C14.6667 9.21916 14.6667 9.21905 14.6667 9.21895C14.6667 9.21884 14.6667 9.21874 14.6667 9.21863C14.6667 9.21853 14.6667 9.21842 14.6667 9.21832C14.6667 9.21821 14.6667 9.21811 14.6667 9.218C14.6667 9.2179 14.6667 9.21779 14.6667 9.21769C14.6667 9.21758 14.6667 9.21747 14.6667 9.21737C14.6667 9.21726 14.6667 9.21715 14.6667 9.21705C14.6667 9.21694 14.6667 9.21683 14.6667 9.21673C14.6667 9.21662 14.6667 9.21651 14.6667 9.2164C14.6667 9.21629 14.6667 9.21619 14.6667 9.21608C14.6667 9.21597 14.6667 9.21586 14.6667 9.21575C14.6667 9.21564 14.6667 9.21553 14.6667 9.21543C14.6667 9.21532 14.6667 9.21521 14.6667 9.2151C14.6667 9.21499 14.6667 9.21488 14.6667 9.21477C14.6667 9.21466 14.6667 9.21455 14.6667 9.21444C14.6667 9.21432 14.6667 9.21421 14.6667 9.2141C14.6667 9.21399 14.6667 9.21388 14.6667 9.21377C14.6667 9.21366 14.6667 9.21355 14.6667 9.21343C14.6667 9.21332 14.6667 9.21321 14.6667 9.2131C14.6667 9.21298 14.6667 9.21287 14.6667 9.21276C14.6667 9.21265 14.6667 9.21253 14.6667 9.21242C14.6667 9.21231 14.6667 9.21219 14.6667 9.21208C14.6667 9.21196 14.6667 9.21185 14.6667 9.21173C14.6667 9.21162 14.6667 9.21151 14.6667 9.21139C14.6667 9.21128 14.6667 9.21116 14.6667 9.21105C14.6667 9.21093 14.6667 9.21081 14.6667 9.2107C14.6667 9.21058 14.6667 9.21047 14.6667 9.21035C14.6667 9.21023 14.6667 9.21012 14.6667 9.21C14.6667 9.20988 14.6667 9.20977 14.6667 9.20965C14.6667 9.20953 14.6667 9.20941 14.6667 9.2093C14.6667 9.20918 14.6667 9.20906 14.6667 9.20894C14.6667 9.20882 14.6667 9.20871 14.6667 9.20859C14.6667 9.20847 14.6667 9.20835 14.6667 9.20823C14.6667 9.20811 14.6667 9.20799 14.6667 9.20787C14.6667 9.20775 14.6667 9.20763 14.6667 9.20751C14.6667 9.20739 14.6667 9.20727 14.6667 9.20715C14.6667 9.20703 14.6667 9.20691 14.6667 9.20679C14.6667 9.20667 14.6667 9.20654 14.6667 9.20642C14.6667 9.2063 14.6667 9.20618 14.6667 9.20606C14.6667 9.20593 14.6667 9.20581 14.6667 9.20569C14.6667 9.20557 14.6667 9.20544 14.6667 9.20532C14.6667 9.2052 14.6667 9.20507 14.6667 9.20495C14.6667 9.20483 14.6667 9.2047 14.6667 9.20458C14.6667 9.20445 14.6667 9.20433 14.6667 9.20421C14.6667 9.20408 14.6667 9.20396 14.6667 9.20383C14.6667 9.2037 14.6667 9.20358 14.6667 9.20345C14.6667 9.20333 14.6667 9.2032 14.6667 9.20308C14.6667 9.20295 14.6667 9.20282 14.6667 9.2027C14.6667 9.20257 14.6667 9.20244 14.6667 9.20232C14.6667 9.20219 14.6667 9.20206 14.6667 9.20193C14.6667 9.20181 14.6667 9.20168 14.6667 9.20155C14.6667 9.20142 14.6667 9.20129 14.6667 9.20116C14.6667 9.20104 14.6667 9.20091 14.6667 9.20078C14.6667 9.20065 14.6667 9.20052 14.6667 9.20039C14.6667 9.20026 14.6667 9.20013 14.6667 9.2H12.2667C12.2667 9.20013 12.2667 9.20026 12.2667 9.20039C12.2667 9.20052 12.2667 9.20065 12.2667 9.20078C12.2667 9.20091 12.2667 9.20104 12.2667 9.20116C12.2667 9.20129 12.2667 9.20142 12.2667 9.20155C12.2667 9.20168 12.2667 9.20181 12.2667 9.20193C12.2667 9.20206 12.2667 9.20219 12.2667 9.20232C12.2667 9.20244 12.2667 9.20257 12.2667 9.2027C12.2667 9.20282 12.2667 9.20295 12.2667 9.20308C12.2667 9.2032 12.2667 9.20333 12.2667 9.20345C12.2667 9.20358 12.2667 9.2037 12.2667 9.20383C12.2667 9.20396 12.2667 9.20408 12.2667 9.20421C12.2667 9.20433 12.2667 9.20445 12.2667 9.20458C12.2667 9.2047 12.2667 9.20483 12.2667 9.20495C12.2667 9.20507 12.2667 9.2052 12.2667 9.20532C12.2667 9.20544 12.2667 9.20557 12.2667 9.20569C12.2667 9.20581 12.2667 9.20593 12.2667 9.20606C12.2667 9.20618 12.2667 9.2063 12.2667 9.20642C12.2667 9.20654 12.2667 9.20667 12.2667 9.20679C12.2667 9.20691 12.2667 9.20703 12.2667 9.20715C12.2667 9.20727 12.2667 9.20739 12.2667 9.20751C12.2667 9.20763 12.2667 9.20775 12.2667 9.20787C12.2667 9.20799 12.2667 9.20811 12.2667 9.20823C12.2667 9.20835 12.2667 9.20847 12.2667 9.20859C12.2667 9.20871 12.2667 9.20882 12.2667 9.20894C12.2667 9.20906 12.2667 9.20918 12.2667 9.2093C12.2667 9.20941 12.2667 9.20953 12.2667 9.20965C12.2667 9.20977 12.2667 9.20988 12.2667 9.21C12.2667 9.21012 12.2667 9.21023 12.2667 9.21035C12.2667 9.21047 12.2667 9.21058 12.2667 9.2107C12.2667 9.21081 12.2667 9.21093 12.2667 9.21105C12.2667 9.21116 12.2667 9.21128 12.2667 9.21139C12.2667 9.21151 12.2667 9.21162 12.2667 9.21173C12.2667 9.21185 12.2667 9.21196 12.2667 9.21208C12.2667 9.21219 12.2667 9.21231 12.2667 9.21242C12.2667 9.21253 12.2667 9.21265 12.2667 9.21276C12.2667 9.21287 12.2667 9.21298 12.2667 9.2131C12.2667 9.21321 12.2667 9.21332 12.2667 9.21343C12.2667 9.21355 12.2667 9.21366 12.2667 9.21377C12.2667 9.21388 12.2667 9.21399 12.2667 9.2141C12.2667 9.21421 12.2667 9.21432 12.2667 9.21444C12.2667 9.21455 12.2667 9.21466 12.2667 9.21477C12.2667 9.21488 12.2667 9.21499 12.2667 9.2151C12.2667 9.21521 12.2667 9.21532 12.2667 9.21543C12.2667 9.21553 12.2667 9.21564 12.2667 9.21575C12.2667 9.21586 12.2667 9.21597 12.2667 9.21608C12.2667 9.21619 12.2667 9.21629 12.2667 9.2164C12.2667 9.21651 12.2667 9.21662 12.2667 9.21673C12.2667 9.21683 12.2667 9.21694 12.2667 9.21705C12.2667 9.21715 12.2667 9.21726 12.2667 9.21737C12.2667 9.21747 12.2667 9.21758 12.2667 9.21769C12.2667 9.21779 12.2667 9.2179 12.2667 9.218C12.2667 9.21811 12.2667 9.21821 12.2667 9.21832C12.2667 9.21842 12.2667 9.21853 12.2667 9.21863C12.2667 9.21874 12.2667 9.21884 12.2667 9.21895C12.2667 9.21905 12.2667 9.21916 12.2667 9.21926C12.2667 9.21936 12.2667 9.21947 12.2667 9.21957C12.2667 9.21967 12.2667 9.21978 12.2667 9.21988C12.2667 9.21998 12.2667 9.22008 12.2667 9.22019C12.2667 9.22029 12.2667 9.22039 12.2667 9.22049C12.2667 9.22059 12.2667 9.2207 12.2667 9.2208C12.2667 9.2209 12.2667 9.221 12.2667 9.2211C12.2667 9.2212 12.2667 9.2213 12.2667 9.2214C12.2667 9.2215 12.2667 9.22161 12.2667 9.22171C12.2667 9.22181 12.2667 9.22191 12.2667 9.222C12.2667 9.2221 12.2667 9.2222 12.2667 9.2223C12.2667 9.2224 12.2667 9.2225 12.2667 9.2226C12.2667 9.2227 12.2667 9.2228 12.2667 9.2229C12.2667 9.22299 12.2667 9.22309 12.2667 9.22319C12.2667 9.22329 12.2667 9.22339 12.2667 9.22348C12.2667 9.22358 12.2667 9.22368 12.2667 9.22378C12.2667 9.22387 12.2667 9.22397 12.2667 9.22407C12.2667 9.22416 12.2667 9.22426 12.2667 9.22436C12.2667 9.22445 12.2667 9.22455 12.2667 9.22464C12.2667 9.22474 12.2667 9.22483 12.2667 9.22493C12.2667 9.22502 12.2667 9.22512 12.2667 9.22521C12.2667 9.22531 12.2667 9.2254 12.2667 9.2255C12.2667 9.22559 12.2667 9.22569 12.2667 9.22578C12.2667 9.22588 12.2667 9.22597 12.2667 9.22606C12.2667 9.22616 12.2667 9.22625 12.2667 9.22634C12.2667 9.22644 12.2667 9.22653 12.2667 9.22662C12.2667 9.22671 12.2667 9.22681 12.2667 9.2269C12.2667 9.22699 12.2667 9.22708 12.2667 9.22717C12.2667 9.22727 12.2667 9.22736 12.2667 9.22745C12.2667 9.22754 12.2667 9.22763 12.2667 9.22772C12.2667 9.22781 12.2667 9.22791 12.2667 9.228C12.2667 9.22809 12.2667 9.22818 12.2667 9.22827C12.2667 9.22836 12.2667 9.22845 12.2667 9.22854C12.2667 9.22863 12.2667 9.22872 12.2667 9.22881C12.2667 9.22889 12.2667 9.22898 12.2667 9.22907C12.2667 9.22916 12.2667 9.22925 12.2667 9.22934C12.2667 9.22943 12.2667 9.22952 12.2667 9.2296C12.2667 9.22969 12.2667 9.22978 12.2667 9.22987C12.2667 9.22995 12.2667 9.23004 12.2667 9.23013C12.2667 9.23022 12.2667 9.2303 12.2667 9.23039C12.2667 9.23048 12.2667 9.23056 12.2667 9.23065C12.2667 9.23074 12.2667 9.23082 12.2667 9.23091C12.2667 9.23099 12.2667 9.23108 12.2667 9.23117C12.2667 9.23125 12.2667 9.23134 12.2667 9.23142C12.2667 9.23151 12.2667 9.23159 12.2667 9.23168C12.2667 9.23176 12.2667 9.23185 12.2667 9.23193C12.2667 9.23201 12.2667 9.2321 12.2667 9.23218C12.2667 9.23227 12.2667 9.23235 12.2667 9.23243C12.2667 9.23252 12.2667 9.2326 12.2667 9.23268C12.2667 9.23277 12.2667 9.23285 12.2667 9.23293C12.2667 9.23301 12.2667 9.2331 12.2667 9.23318C12.2667 9.23326 12.2667 9.23334 12.2667 9.23343C12.2667 9.23351 12.2667 9.23359 12.2667 9.23367C12.2667 9.23375 12.2667 9.23383 12.2667 9.23391C12.2667 9.23399 12.2667 9.23408 12.2667 9.23416C12.2667 9.23424 12.2667 9.23432 12.2667 9.2344C12.2667 9.23448 12.2667 9.23456 12.2667 9.23464C12.2667 9.23472 12.2667 9.2348 12.2667 9.23488C12.2667 9.23496 12.2667 9.23504 12.2667 9.23512C12.2667 9.23519 12.2667 9.23527 12.2667 9.23535C12.2667 9.23543 12.2667 9.23551 12.2667 9.23559C12.2667 9.23567 12.2667 9.23574 12.2667 9.23582C12.2667 9.2359 12.2667 9.23598 12.2667 9.23605C12.2667 9.23613 12.2667 9.23621 12.2667 9.23629C12.2667 9.23636 12.2667 9.23644 12.2667 9.23652C12.2667 9.23659 12.2667 9.23667 12.2667 9.23675C12.2667 9.23682 12.2667 9.2369 12.2667 9.23698C12.2667 9.23705 12.2667 9.23713 12.2667 9.2372C12.2667 9.23728 12.2667 9.23735 12.2667 9.23743C12.2667 9.2375 12.2667 9.23758 12.2667 9.23765C12.2667 9.23773 12.2667 9.2378 12.2667 9.23788C12.2667 9.23795 12.2667 9.23803 12.2667 9.2381C12.2667 9.23817 12.2667 9.23825 12.2667 9.23832C12.2667 9.23839 12.2667 9.23847 12.2667 9.23854C12.2667 9.23861 12.2667 9.23869 12.2667 9.23876C12.2667 9.23883 12.2667 9.23891 12.2667 9.23898C12.2667 9.23905 12.2667 9.23912 12.2667 9.2392C12.2667 9.23927 12.2667 9.23934 12.2667 9.23941C12.2667 9.23948 12.2667 9.23955 12.2667 9.23963C12.2667 9.2397 12.2667 9.23977 12.2667 9.23984C12.2667 9.23991 12.2667 9.23998 12.2667 9.24005C12.2667 9.24012 12.2667 9.24019 12.2667 9.24026C12.2667 9.24033 12.2667 9.2404 12.2667 9.24047C12.2667 9.24054 12.2667 9.24061 12.2667 9.24068C12.2667 9.24075 12.2667 9.24082 12.2667 9.24089C12.2667 9.24096 12.2667 9.24103 12.2667 9.2411C12.2667 9.24117 12.2667 9.24123 12.2667 9.2413C12.2667 9.24137 12.2667 9.24144 12.2667 9.24151C12.2667 9.24157 12.2667 9.24164 12.2667 9.24171C12.2667 9.24178 12.2667 9.24185 12.2667 9.24191C12.2667 9.24198 12.2667 9.24205 12.2667 9.24211C12.2667 9.24218 12.2667 9.24225 12.2667 9.24231C12.2667 9.24238 12.2667 9.24245 12.2667 9.24251C12.2667 9.24258 12.2667 9.24265 12.2667 9.24271C12.2667 9.24278 12.2667 9.24284 12.2667 9.24291C12.2667 9.24297 12.2667 9.24304 12.2667 9.2431C12.2667 9.24317 12.2667 9.24323 12.2667 9.2433C12.2667 9.24336 12.2667 9.24343 12.2667 9.24349C12.2667 9.24356 12.2667 9.24362 12.2667 9.24368C12.2667 9.24375 12.2667 9.24381 12.2667 9.24388C12.2667 9.24394 12.2667 9.244 12.2667 9.24407C12.2667 9.24413 12.2667 9.24419 12.2667 9.24426C12.2667 9.24432 12.2667 9.24438 12.2667 9.24444C12.2667 9.24451 12.2667 9.24457 12.2667 9.24463C12.2667 9.24469 12.2667 9.24476 12.2667 9.24482C12.2667 9.24488 12.2667 9.24494 12.2667 9.245C12.2667 9.24506 12.2667 9.24513 12.2667 9.24519C12.2667 9.24525 12.2667 9.24531 12.2667 9.24537C12.2667 9.24543 12.2667 9.24549 12.2667 9.24555C12.2667 9.24561 12.2667 9.24567 12.2667 9.24573C12.2667 9.24579 12.2667 9.24585 12.2667 9.24591C12.2667 9.24597 12.2667 9.24603 12.2667 9.24609C12.2667 9.24615 12.2667 9.24621 12.2667 9.24627C12.2667 9.24633 12.2667 9.24639 12.2667 9.24645C12.2667 9.24651 12.2667 9.24656 12.2667 9.24662C12.2667 9.24668 12.2667 9.24674 12.2667 9.2468C12.2667 9.24686 12.2667 9.24691 12.2667 9.24697C12.2667 9.24703 12.2667 9.24709 12.2667 9.24714C12.2667 9.2472 12.2667 9.24726 12.2667 9.24732C12.2667 9.24737 12.2667 9.24743 12.2667 9.24749C12.2667 9.24754 12.2667 9.2476 12.2667 9.24766C12.2667 9.24771 12.2667 9.24777 12.2667 9.24783C12.2667 9.24788 12.2667 9.24794 12.2667 9.24799C12.2667 9.24805 12.2667 9.2481 12.2667 9.24816C12.2667 9.24821 12.2667 9.24827 12.2667 9.24833C12.2667 9.24838 12.2667 9.24844 12.2667 9.24849C12.2667 9.24854 12.2667 9.2486 12.2667 9.24865C12.2667 9.24871 12.2667 9.24876 12.2667 9.24882C12.2667 9.24887 12.2667 9.24892 12.2667 9.24898C12.2667 9.24903 12.2667 9.24909 12.2667 9.24914C12.2667 9.24919 12.2667 9.24925 12.2667 9.2493C12.2667 9.24935 12.2667 9.2494 12.2667 9.24946C12.2667 9.24951 12.2667 9.24956 12.2667 9.24962C12.2667 9.24967 12.2667 9.24972 12.2667 9.24977C12.2667 9.24982 12.2667 9.24988 12.2667 9.24993C12.2667 9.24998 12.2667 9.25003 12.2667 9.25008C12.2667 9.25013 12.2667 9.25019 12.2667 9.25024C12.2667 9.25029 12.2667 9.25034 12.2667 9.25039C12.2667 9.25044 12.2667 9.25049 12.2667 9.25054C12.2667 9.25059 12.2667 9.25064 12.2667 9.25069C12.2667 9.25074 12.2667 9.25079 12.2667 9.25084C12.2667 9.25089 12.2667 9.25094 12.2667 9.25099C12.2667 9.25104 12.2667 9.25109 12.2667 9.25114C12.2667 9.25119 12.2667 9.25124 12.2667 9.25129C12.2667 9.25134 12.2667 9.25139 12.2667 9.25144C12.2667 9.25148 12.2667 9.25153 12.2667 9.25158C12.2667 9.25163 12.2667 9.25168 12.2667 9.25173C12.2667 9.25177 12.2667 9.25182 12.2667 9.25187C12.2667 9.25192 12.2667 9.25196 12.2667 9.25201C12.2667 9.25206 12.2667 9.25211 12.2667 9.25215C12.2667 9.2522 12.2667 9.25225 12.2667 9.25229C12.2667 9.25234 12.2667 9.25239 12.2667 9.25243C12.2667 9.25248 12.2667 9.25253 12.2667 9.25257C12.2667 9.25262 12.2667 9.25267 12.2667 9.25271C12.2667 9.25276 12.2667 9.2528 12.2667 9.25285C12.2667 9.25289 12.2667 9.25294 12.2667 9.25299C12.2667 9.25303 12.2667 9.25308 12.2667 9.25312C12.2667 9.25317 12.2667 9.25321 12.2667 9.25326C12.2667 9.2533 12.2667 9.25335 12.2667 9.25339C12.2667 9.25343 12.2667 9.25348 12.2667 9.25352C12.2667 9.25357 12.2667 9.25361 12.2667 9.25365C12.2667 9.2537 12.2667 9.25374 12.2667 9.25378C12.2667 9.25383 12.2667 9.25387 12.2667 9.25391C12.2667 9.25396 12.2667 9.254 12.2667 9.25404C12.2667 9.25409 12.2667 9.25413 12.2667 9.25417C12.2667 9.25422 12.2667 9.25426 12.2667 9.2543C12.2667 9.25434 12.2667 9.25438 12.2667 9.25443C12.2667 9.25447 12.2667 9.25451 12.2667 9.25455C12.2667 9.25459 12.2667 9.25464 12.2667 9.25468C12.2667 9.25472 12.2667 9.25476 12.2667 9.2548C12.2667 9.25484 12.2667 9.25488 12.2667 9.25492C12.2667 9.25497 12.2667 9.25501 12.2667 9.25505C12.2667 9.25509 12.2667 9.25513 12.2667 9.25517C12.2667 9.25521 12.2667 9.25525 12.2667 9.25529C12.2667 9.25533 12.2667 9.25537 12.2667 9.25541C12.2667 9.25545 12.2667 9.25549 12.2667 9.25553C12.2667 9.25557 12.2667 9.25561 12.2667 9.25565C12.2667 9.25568 12.2667 9.25572 12.2667 9.25576C12.2667 9.2558 12.2667 9.25584 12.2667 9.25588C12.2667 9.25592 12.2667 9.25596 12.2667 9.25599C12.2667 9.25603 12.2667 9.25607 12.2667 9.25611C12.2667 9.25615 12.2667 9.25619 12.2667 9.25622C12.2667 9.25626 12.2667 9.2563 12.2667 9.25634C12.2667 9.25637 12.2667 9.25641 12.2667 9.25645C12.2667 9.25649 12.2667 9.25652 12.2667 9.25656C12.2667 9.2566 12.2667 9.25663 12.2667 9.25667C12.2667 9.25671 12.2667 9.25674 12.2667 9.25678C12.2667 9.25682 12.2667 9.25685 12.2667 9.25689C12.2667 9.25693 12.2667 9.25696 12.2667 9.257C12.2667 9.25703 12.2667 9.25707 12.2667 9.25711C12.2667 9.25714 12.2667 9.25718 12.2667 9.25721C12.2667 9.25725 12.2667 9.25728 12.2667 9.25732C12.2667 9.25735 12.2667 9.25739 12.2667 9.25742C12.2667 9.25746 12.2667 9.25749 12.2667 9.25753C12.2667 9.25756 12.2667 9.2576 12.2667 9.25763C12.2667 9.25767 12.2667 9.2577 12.2667 9.25773C12.2667 9.25777 12.2667 9.2578 12.2667 9.25784C12.2667 9.25787 12.2667 9.2579 12.2667 9.25794C12.2667 9.25797 12.2667 9.258 12.2667 9.25804C12.2667 9.25807 12.2667 9.2581 12.2667 9.25814C12.2667 9.25817 12.2667 9.2582 12.2667 9.25824C12.2667 9.25827 12.2667 9.2583 12.2667 9.25833C12.2667 9.25837 12.2667 9.2584 12.2667 9.25843C12.2667 9.25846 12.2667 9.25849 12.2667 9.25853C12.2667 9.25856 12.2667 9.25859 12.2667 9.25862C12.2667 9.25865 12.2667 9.25869 12.2667 9.25872C12.2667 9.25875 12.2667 9.25878 12.2667 9.25881C12.2667 9.25884 12.2667 9.25887 12.2667 9.25891C12.2667 9.25894 12.2667 9.25897 12.2667 9.259C12.2667 9.25903 12.2667 9.25906 12.2667 9.25909C12.2667 9.25912 12.2667 9.25915 12.2667 9.25918C12.2667 9.25921 12.2667 9.25924 12.2667 9.25927C12.2667 9.2593 12.2667 9.25933 12.2667 9.25936C12.2667 9.25939 12.2667 9.25942 12.2667 9.25945C12.2667 9.25948 12.2667 9.25951 12.2667 9.25954C12.2667 9.25957 12.2667 9.2596 12.2667 9.25963C12.2667 9.25966 12.2667 9.25969 12.2667 9.25971C12.2667 9.25974 12.2667 9.25977 12.2667 9.2598C12.2667 9.25983 12.2667 9.25986 12.2667 9.25989C12.2667 9.25991 12.2667 9.25994 12.2667 9.25997C12.2667 9.26 12.2667 9.26003 12.2667 9.26005C12.2667 9.26008 12.2667 9.26011 12.2667 9.26014C12.2667 9.26017 12.2667 9.26019 12.2667 9.26022C12.2667 9.26025 12.2667 9.26028 12.2667 9.2603C12.2667 9.26033 12.2667 9.26036 12.2667 9.26038C12.2667 9.26041 12.2667 9.26044 12.2667 9.26046C12.2667 9.26049 12.2667 9.26052 12.2667 9.26054C12.2667 9.26057 12.2667 9.2606 12.2667 9.26062C12.2667 9.26065 12.2667 9.26068 12.2667 9.2607C12.2667 9.26073 12.2667 9.26075 12.2667 9.26078C12.2667 9.26081 12.2667 9.26083 12.2667 9.26086C12.2667 9.26088 12.2667 9.26091 12.2667 9.26093C12.2667 9.26096 12.2667 9.26098 12.2667 9.26101C12.2667 9.26103 12.2667 9.26106 12.2667 9.26108C12.2667 9.26111 12.2667 9.26113 12.2667 9.26116C12.2667 9.26118 12.2667 9.26121 12.2667 9.26123C12.2667 9.26126 12.2667 9.26128 12.2667 9.26131C12.2667 9.26133 12.2667 9.26135 12.2667 9.26138C12.2667 9.2614 12.2667 9.26143 12.2667 9.26145C12.2667 9.26147 12.2667 9.2615 12.2667 9.26152C12.2667 9.26154 12.2667 9.26157 12.2667 9.26159C12.2667 9.26161 12.2667 9.26164 12.2667 9.26166C12.2667 9.26168 12.2667 9.26171 12.2667 9.26173C12.2667 9.26175 12.2667 9.26178 12.2667 9.2618C12.2667 9.26182 12.2667 9.26184 12.2667 9.26187C12.2667 9.26189 12.2667 9.26191 12.2667 9.26193C12.2667 9.26196 12.2667 9.26198 12.2667 9.262C12.2667 9.26202 12.2667 9.26204 12.2667 9.26207C12.2667 9.26209 12.2667 9.26211 12.2667 9.26213C12.2667 9.26215 12.2667 9.26218 12.2667 9.2622C12.2667 9.26222 12.2667 9.26224 12.2667 9.26226C12.2667 9.26228 12.2667 9.2623 12.2667 9.26232C12.2667 9.26235 12.2667 9.26237 12.2667 9.26239C12.2667 9.26241 12.2667 9.26243 12.2667 9.26245C12.2667 9.26247 12.2667 9.26249 12.2667 9.26251C12.2667 9.26253 12.2667 9.26255 12.2667 9.26257C12.2667 9.26259 12.2667 9.26261 12.2667 9.26263C12.2667 9.26265 12.2667 9.26267 12.2667 9.26269C12.2667 9.26271 12.2667 9.26273 12.2667 9.26275C12.2667 9.26277 12.2667 9.26279 12.2667 9.26281C12.2667 9.26283 12.2667 9.26285 12.2667 9.26287C12.2667 9.26289 12.2667 9.26291 12.2667 9.26293C12.2667 9.26295 12.2667 9.26296 12.2667 9.26298C12.2667 9.263 12.2667 9.26302 12.2667 9.26304C12.2667 9.26306 12.2667 9.26308 12.2667 9.2631C12.2667 9.26311 12.2667 9.26313 12.2667 9.26315C12.2667 9.26317 12.2667 9.26319 12.2667 9.26321C12.2667 9.26322 12.2667 9.26324 12.2667 9.26326C12.2667 9.26328 12.2667 9.2633 12.2667 9.26331C12.2667 9.26333 12.2667 9.26335 12.2667 9.26337C12.2667 9.26338 12.2667 9.2634 12.2667 9.26342C12.2667 9.26344 12.2667 9.26345 12.2667 9.26347C12.2667 9.26349 12.2667 9.2635 12.2667 9.26352C12.2667 9.26354 12.2667 9.26356 12.2667 9.26357C12.2667 9.26359 12.2667 9.26361 12.2667 9.26362C12.2667 9.26364 12.2667 9.26366 12.2667 9.26367C12.2667 9.26369 12.2667 9.2637 12.2667 9.26372C12.2667 9.26374 12.2667 9.26375 12.2667 9.26377C12.2667 9.26379 12.2667 9.2638 12.2667 9.26382C12.2667 9.26383 12.2667 9.26385 12.2667 9.26387C12.2667 9.26388 12.2667 9.2639 12.2667 9.26391C12.2667 9.26393 12.2667 9.26394 12.2667 9.26396C12.2667 9.26397 12.2667 9.26399 12.2667 9.264C12.2667 9.26402 12.2667 9.26403 12.2667 9.26405C12.2667 9.26406 12.2667 9.26408 12.2667 9.26409C12.2667 9.26411 12.2667 9.26412 12.2667 9.26414C12.2667 9.26415 12.2667 9.26417 12.2667 9.26418C12.2667 9.2642 12.2667 9.26421 12.2667 9.26423C12.2667 9.26424 12.2667 9.26426 12.2667 9.26427C12.2667 9.26428 12.2667 9.2643 12.2667 9.26431C12.2667 9.26433 12.2667 9.26434 12.2667 9.26435C12.2667 9.26437 12.2667 9.26438 12.2667 9.26439C12.2667 9.26441 12.2667 9.26442 12.2667 9.26444C12.2667 9.26445 12.2667 9.26446 12.2667 9.26448C12.2667 9.26449 12.2667 9.2645 12.2667 9.26452C12.2667 9.26453 12.2667 9.26454 12.2667 9.26455C12.2667 9.26457 12.2667 9.26458 12.2667 9.26459C12.2667 9.26461 12.2667 9.26462 12.2667 9.26463C12.2667 9.26464 12.2667 9.26466 12.2667 9.26467C12.2667 9.26468 12.2667 9.2647 12.2667 9.26471C12.2667 9.26472 12.2667 9.26473 12.2667 9.26474C12.2667 9.26476 12.2667 9.26477 12.2667 9.26478C12.2667 9.26479 12.2667 9.2648 12.2667 9.26482C12.2667 9.26483 12.2667 9.26484 12.2667 9.26485C12.2667 9.26486 12.2667 9.26488 12.2667 9.26489C12.2667 9.2649 12.2667 9.26491 12.2667 9.26492C12.2667 9.26493 12.2667 9.26495 12.2667 9.26496C12.2667 9.26497 12.2667 9.26498 12.2667 9.26499C12.2667 9.265 12.2667 9.26501 12.2667 9.26502C12.2667 9.26503 12.2667 9.26505 12.2667 9.26506C12.2667 9.26507 12.2667 9.26508 12.2667 9.26509C12.2667 9.2651 12.2667 9.26511 12.2667 9.26512C12.2667 9.26513 12.2667 9.26514 12.2667 9.26515C12.2667 9.26516 12.2667 9.26517 12.2667 9.26518C12.2667 9.26519 12.2667 9.2652 12.2667 9.26521C12.2667 9.26522 12.2667 9.26523 12.2667 9.26524C12.2667 9.26525 12.2667 9.26526 12.2667 9.26527C12.2667 9.26528 12.2667 9.26529 12.2667 9.2653C12.2667 9.26531 12.2667 9.26532 12.2667 9.26533C12.2667 9.26534 12.2667 9.26535 12.2667 9.26536C12.2667 9.26537 12.2667 9.26538 12.2667 9.26539C12.2667 9.2654 12.2667 9.26541 12.2667 9.26542C12.2667 9.26543 12.2667 9.26544 12.2667 9.26544C12.2667 9.26545 12.2667 9.26546 12.2667 9.26547C12.2667 9.26548 12.2667 9.26549 12.2667 9.2655C12.2667 9.26551 12.2667 9.26552 12.2667 9.26552C12.2667 9.26553 12.2667 9.26554 12.2667 9.26555C12.2667 9.26556 12.2667 9.26557 12.2667 9.26558C12.2667 9.26558 12.2667 9.26559 12.2667 9.2656C12.2667 9.26561 12.2667 9.26562 12.2667 9.26562C12.2667 9.26563 12.2667 9.26564 12.2667 9.26565C12.2667 9.26566 12.2667 9.26567 12.2667 9.26567C12.2667 9.26568 12.2667 9.26569 12.2667 9.2657C12.2667 9.2657 12.2667 9.26571 12.2667 9.26572C12.2667 9.26573 12.2667 9.26573 12.2667 9.26574C12.2667 9.26575 12.2667 9.26576 12.2667 9.26576C12.2667 9.26577 12.2667 9.26578 12.2667 9.26579C12.2667 9.26579 12.2667 9.2658 12.2667 9.26581C12.2667 9.26582 12.2667 9.26582 12.2667 9.26583C12.2667 9.26584 12.2667 9.26584 12.2667 9.26585C12.2667 9.26586 12.2667 9.26586 12.2667 9.26587C12.2667 9.26588 12.2667 9.26588 12.2667 9.26589C12.2667 9.2659 12.2667 9.2659 12.2667 9.26591C12.2667 9.26592 12.2667 9.26592 12.2667 9.26593C12.2667 9.26594 12.2667 9.26594 12.2667 9.26595C12.2667 9.26596 12.2667 9.26596 12.2667 9.26597C12.2667 9.26597 12.2667 9.26598 12.2667 9.26599C12.2667 9.26599 12.2667 9.266 12.2667 9.26601C12.2667 9.26601 12.2667 9.26602 12.2667 9.26602C12.2667 9.26603 12.2667 9.26604 12.2667 9.26604C12.2667 9.26605 12.2667 9.26605 12.2667 9.26606C12.2667 9.26606 12.2667 9.26607 12.2667 9.26608C12.2667 9.26608 12.2667 9.26609 12.2667 9.26609C12.2667 9.2661 12.2667 9.2661 12.2667 9.26611C12.2667 9.26611 12.2667 9.26612 12.2667 9.26612C12.2667 9.26613 12.2667 9.26613 12.2667 9.26614C12.2667 9.26614 12.2667 9.26615 12.2667 9.26615C12.2667 9.26616 12.2667 9.26616 12.2667 9.26617C12.2667 9.26617 12.2667 9.26618 12.2667 9.26618C12.2667 9.26619 12.2667 9.26619 12.2667 9.2662C12.2667 9.2662 12.2667 9.26621 12.2667 9.26621C12.2667 9.26622 12.2667 9.26622 12.2667 9.26623C12.2667 9.26623 12.2667 9.26624 12.2667 9.26624C12.2667 9.26625 12.2667 9.26625 12.2667 9.26625C12.2667 9.26626 12.2667 9.26626 12.2667 9.26627C12.2667 9.26627 12.2667 9.26628 12.2667 9.26628C12.2667 9.26628 12.2667 9.26629 12.2667 9.26629C12.2667 9.2663 12.2667 9.2663 12.2667 9.2663C12.2667 9.26631 12.2667 9.26631 12.2667 9.26632C12.2667 9.26632 12.2667 9.26632 12.2667 9.26633C12.2667 9.26633 12.2667 9.26634 12.2667 9.26634C12.2667 9.26634 12.2667 9.26635 12.2667 9.26635C12.2667 9.26635 12.2667 9.26636 12.2667 9.26636C12.2667 9.26637 12.2667 9.26637 12.2667 9.26637C12.2667 9.26638 12.2667 9.26638 12.2667 9.26638C12.2667 9.26639 12.2667 9.26639 12.2667 9.26639C12.2667 9.2664 12.2667 9.2664 12.2667 9.2664C12.2667 9.26641 12.2667 9.26641 12.2667 9.26641C12.2667 9.26642 12.2667 9.26642 12.2667 9.26642C12.2667 9.26642 12.2667 9.26643 12.2667 9.26643C12.2667 9.26643 12.2667 9.26644 12.2667 9.26644C12.2667 9.26644 12.2667 9.26645 12.2667 9.26645C12.2667 9.26645 12.2667 9.26645 12.2667 9.26646C12.2667 9.26646 12.2667 9.26646 12.2667 9.26647C12.2667 9.26647 12.2667 9.26647 12.2667 9.26647C12.2667 9.26648 12.2667 9.26648 12.2667 9.26648C12.2667 9.26648 12.2667 9.26649 12.2667 9.26649C12.2667 9.26649 12.2667 9.26649 12.2667 9.2665C12.2667 9.2665 12.2667 9.2665 12.2667 9.2665C12.2667 9.26651 12.2667 9.26651 12.2667 9.26651C12.2667 9.26651 12.2667 9.26651 12.2667 9.26652C12.2667 9.26652 12.2667 9.26652 12.2667 9.26652C12.2667 9.26653 12.2667 9.26653 12.2667 9.26653C12.2667 9.26653 12.2667 9.26653 12.2667 9.26654C12.2667 9.26654 12.2667 9.26654 12.2667 9.26654C12.2667 9.26654 12.2667 9.26655 12.2667 9.26655C12.2667 9.26655 12.2667 9.26655 12.2667 9.26655C12.2667 9.26656 12.2667 9.26656 12.2667 9.26656C12.2667 9.26656 12.2667 9.26656 12.2667 9.26656C12.2667 9.26657 12.2667 9.26657 12.2667 9.26657C12.2667 9.26657 12.2667 9.26657 12.2667 9.26657C12.2667 9.26658 12.2667 9.26658 12.2667 9.26658C12.2667 9.26658 12.2667 9.26658 12.2667 9.26658C12.2667 9.26659 12.2667 9.26659 12.2667 9.26659C12.2667 9.26659 12.2667 9.26659 12.2667 9.26659C12.2667 9.26659 12.2667 9.2666 12.2667 9.2666C12.2667 9.2666 12.2667 9.2666 12.2667 9.2666C12.2667 9.2666 12.2667 9.2666 12.2667 9.2666C12.2667 9.26661 12.2667 9.26661 12.2667 9.26661C12.2667 9.26661 12.2667 9.26661 12.2667 9.26661C12.2667 9.26661 12.2667 9.26661 12.2667 9.26661C12.2667 9.26662 12.2667 9.26662 12.2667 9.26662C12.2667 9.26662 12.2667 9.26662 12.2667 9.26662C12.2667 9.26662 12.2667 9.26662 12.2667 9.26662C12.2667 9.26663 12.2667 9.26663 12.2667 9.26663C12.2667 9.26663 12.2667 9.26663 12.2667 9.26663C12.2667 9.26663 12.2667 9.26663 12.2667 9.26663C12.2667 9.26663 12.2667 9.26663 12.2667 9.26663C12.2667 9.26664 12.2667 9.26664 12.2667 9.26664C12.2667 9.26664 12.2667 9.26664 12.2667 9.26664C12.2667 9.26664 12.2667 9.26664 12.2667 9.26664C12.2667 9.26664 12.2667 9.26664 12.2667 9.26664C12.2667 9.26664 12.2667 9.26664 12.2667 9.26665C12.2667 9.26665 12.2667 9.26665 12.2667 9.26665C12.2667 9.26665 12.2667 9.26665 12.2667 9.26665C12.2667 9.26665 12.2667 9.26665 12.2667 9.26665C12.2667 9.26665 12.2667 9.26665 12.2667 9.26665C12.2667 9.26665 12.2667 9.26665 12.2667 9.26665C12.2667 9.26665 12.2667 9.26665 12.2667 9.26665C12.2667 9.26665 12.2667 9.26666 12.2667 9.26666C12.2667 9.26666 12.2667 9.26666 12.2667 9.26666C12.2667 9.26666 12.2667 9.26666 12.2667 9.26666C12.2667 9.26666 12.2667 9.26666 12.2667 9.26666C12.2667 9.26666 12.2667 9.26666 12.2667 9.26666C12.2667 9.26666 12.2667 9.26666 12.2667 9.26666V9.26666C12.2667 9.26666 12.2667 9.26666 12.2667 9.26666V9.26666C12.2667 9.26666 12.2667 9.26666 12.2667 9.26666C12.2667 9.26666 12.2667 9.26666 12.2667 9.26666C12.2667 9.26666 12.2667 9.26666 12.2667 9.26666C12.2667 9.26666 12.2667 9.26666 12.2667 9.26666V9.26666C12.2667 9.26666 12.2667 9.26666 12.2667 9.26667V9.26667C12.2667 9.26667 12.2667 9.26667 12.2667 9.26667H13.4667ZM14.2776 10.0846C15.3402 9.11054 15.9334 7.71598 15.9334 6.2H13.5334C13.5334 7.08402 13.1932 7.82279 12.6558 8.31541L14.2776 10.0846ZM15.9334 6.2V6.06667H13.5334V6.2H15.9334ZM0.133374 6.06667V6.2H2.53337V6.06667H0.133374Z" fill="#4B5563" mask="url(#path-1-inside-1_164_8176)"/>
</svg>